<svg width="18" height="18" viewBox="0 0 18 18" xmlns="http://www.w3.org/2000/svg"><title>right-align</title><path d="M6 4.5C6 5.879 7.121 7 8.5 7h4C13.879 7 15 5.879 15 4.5S13.879 2 12.5 2h-4A2.502 2.502 0 0 0 6 4.5zM16 2v15.01c0 .547.443.99.99.99h.02a.99.99 0 0 0 .99-.99V2h-2zm0-1.01V2h2V.99a.99.99 0 0 0-.99-.99h-.02a.99.99 0 0 0-.99.99zM12.5 11c.275 0 .5.225.5.5v2c0 .275-.225.5-.5.5h-10a.501.501 0 0 1-.5-.5v-2c0-.275.225-.5.5-.5h10zm0-2h-10A2.502 2.502 0 0 0 0 11.5v2C0 14.878 1.121 16 2.5 16h10c1.378 0 2.5-1.122 2.5-2.5v-2c0-1.379-1.122-2.5-2.5-2.5z" fill="#5C5C5C"/></svg>