<svg width="18" height="18" viewBox="0 0 18 18" xmlns="http://www.w3.org/2000/svg"><title>horiz-center-align</title><path d="M2 8V6.5C2 5.121 3.121 4 4.5 4S7 5.121 7 6.5V8h2v2H7v1.5C7 12.879 5.879 14 4.5 14S2 12.879 2 11.5V10H.99A.99.99 0 0 1 0 9.01v-.02A.99.99 0 0 1 .99 8H2zm15.01 0H16v2h1.01a.99.99 0 0 0 .99-.99v-.02a.99.99 0 0 0-.99-.99zM13.5 3c.275 0 .5.225.5.5v11c0 .275-.225.5-.5.5h-2a.501.501 0 0 1-.5-.5v-11c0-.275.225-.5.5-.5h2zm0-2h-2A2.503 2.503 0 0 0 9 3.5v11c0 1.379 1.122 2.5 2.5 2.5h2c1.378 0 2.5-1.121 2.5-2.5v-11C16 2.122 14.878 1 13.5 1z"/></svg>