<svg width="18" height="18" viewBox="0 0 18 18" xmlns="http://www.w3.org/2000/svg"><title>top-align</title><path d="M6.55 5c.275 0 .5.225.5.5v10c0 .275-.225.5-.5.5h-2a.5.5 0 0 1-.5-.5v-10a.5.5 0 0 1 .5-.5h2zm0-2h-2a2.502 2.502 0 0 0-2.5 2.5v10c0 1.378 1.121 2.5 2.5 2.5h2c1.378 0 2.5-1.122 2.5-2.5v-10c0-1.379-1.122-2.5-2.5-2.5zm10.46-3H16v2h1c.547 0 1-.443 1-.99V.99a.99.99 0 0 0-.99-.99zM16 0H.99A.99.99 0 0 0 0 .99v.02C0 1.557.453 2 1 2h15V0zm-2.5 3A2.502 2.502 0 0 0 11 5.5v4c0 1.379 1.121 2.5 2.5 2.5S16 10.879 16 9.5v-4C16 4.121 14.879 3 13.5 3z" fill="#5C5C5C"/></svg>