<svg width="18" height="18" viewBox="0 0 18 18" xmlns="http://www.w3.org/2000/svg"><title>bottom-align</title><path d="M13.5 6A2.502 2.502 0 0 0 11 8.5v4c0 1.379 1.121 2.5 2.5 2.5s2.5-1.121 2.5-2.5v-4C16 7.121 14.879 6 13.5 6zM16 16H.99a.99.99 0 0 0-.99.99v.02c0 .547.443.99.99.99H16v-2zm1.01 0H16v2h1.01a.99.99 0 0 0 .99-.99v-.02a.99.99 0 0 0-.99-.99zM6.5 2c.275 0 .5.225.5.5v10c0 .275-.225.5-.5.5h-2a.501.501 0 0 1-.5-.5v-10c0-.275.225-.5.5-.5h2zm0-2h-2A2.503 2.503 0 0 0 2 2.5v10C2 13.878 3.122 15 4.5 15h2C7.878 15 9 13.878 9 12.5v-10C9 1.121 7.878 0 6.5 0z" fill="#5C5C5C"/></svg>