<svg width="18" height="18" viewBox="0 0 18 18" xmlns="http://www.w3.org/2000/svg"><title>vertical-middle-align</title><path d="M10 2h1.5C12.879 2 14 3.121 14 4.5S12.879 7 11.5 7H10v2H8V7H6.5C5.121 7 4 5.879 4 4.5S5.121 2 6.5 2H8V.99A.99.99 0 0 1 8.99 0h.02a.99.99 0 0 1 .99.99V2zm0 15.01V16H8v1.01c0 .547.443.99.99.99h.02a.99.99 0 0 0 .99-.99zM14.5 11c.275 0 .5.225.5.5v2c0 .275-.225.5-.5.5h-11a.501.501 0 0 1-.5-.5v-2c0-.275.225-.5.5-.5h11zm0-2h-11A2.502 2.502 0 0 0 1 11.5v2C1 14.879 2.121 16 3.5 16h11c1.378 0 2.5-1.121 2.5-2.5v-2c0-1.379-1.122-2.5-2.5-2.5z"/></svg>