<svg width="18" height="18" viewBox="0 0 18 18" xmlns="http://www.w3.org/2000/svg"><title>left-align</title><path d="M3 4.5C3 5.879 4.121 7 5.5 7h4C10.879 7 12 5.879 12 4.5S10.879 2 9.5 2h-4A2.502 2.502 0 0 0 3 4.5zM0 2v15.01c0 .547.443.99.99.99h.02a.99.99 0 0 0 .99-.99V2H0zM0 .99V2h2V.99A.99.99 0 0 0 1.01 0H.99A.99.99 0 0 0 0 .99zM15.5 11c.275 0 .5.225.5.5v2c0 .275-.225.5-.5.5h-10a.501.501 0 0 1-.5-.5v-2c0-.275.225-.5.5-.5h10zm0-2h-10A2.502 2.502 0 0 0 3 11.5v2C3 14.879 4.121 16 5.5 16h10c1.378 0 2.5-1.121 2.5-2.5v-2c0-1.379-1.122-2.5-2.5-2.5z" fill="#5C5C5C"/></svg>