<svg width="18" height="18" viewBox="0 0 18 18" xmlns="http://www.w3.org/2000/svg"><title>camera</title><path d="M13.239 4l-.846-1.078C12.031 2.319 11.38 2 10.677 2h-3.34c-.703 0-1.355.319-1.716.922L4.774 4H2a2 2 0 0 0-2 2v9.996a2 2 0 0 0 2 2h13.994a2 2 0 0 0 2-2V6a2 2 0 0 0-2-2h-2.755zm-9.251 6.998A5.003 5.003 0 0 1 8.997 6a5.003 5.003 0 0 1 5.009 4.998 5.005 5.005 0 0 1-5.009 4.998 5.004 5.004 0 0 1-5.009-4.998zm5.009-2.999a3.005 3.005 0 0 0-3.006 2.999 3.006 3.006 0 1 0 6.012 0 3.005 3.005 0 0 0-3.006-2.999"/></svg>