<svg width="18" height="18" viewBox="0 0 18 18" xmlns="http://www.w3.org/2000/svg"><title>check-box</title><path d="M9.063 13a.999.999 0 0 1-.703-.288L4.297 8.711a.998.998 0 0 1-.008-1.413.998.998 0 0 1 1.414-.009l3.353 3.299 7.235-7.293a1 1 0 0 1 1.418 1.41l-7.937 8a1.001 1.001 0 0 1-.709.295M15 10a1 1 0 0 0-1 1v3.599c0 .389-.449.401-.5.401h-10c-.051 0-.5-.012-.5-.401V4.5a.5.5 0 0 1 .5-.5H13a1 1 0 1 0 0-2H3.5A2.503 2.503 0 0 0 1 4.5v10.099C1 15.945 2.098 17 3.5 17h10c1.402 0 2.5-1.055 2.5-2.401V11a1 1 0 0 0-1-1" fill="#5C5C5C"/></svg>