<svg width="18" height="18" viewBox="0 0 18 18" xmlns="http://www.w3.org/2000/svg"><title>inventory</title><path d="M4.894 18H2.993h.508a2.5 2.5 0 0 1-2.5-2.5v-11c0-1.252.924-2.28 2.125-2.462V2h1.718L5.691.922C6.052.319 6.704 0 7.407 0h3.34c.703 0 1.354.319 1.716.922L13.309 2h1.567v.038A2.494 2.494 0 0 1 17.001 4.5v11a2.5 2.5 0 0 1-2.5 2.5H4.894zm0-2H2.993h.508a.5.5 0 0 1-.5-.5v-11a.5.5 0 0 1 .5-.5h11a.5.5 0 0 1 .5.5v11a.5.5 0 0 1-.5.5H4.894zm7.107-9h-6c-.55 0-1 .45-1 1s.45 1 1 1h6c.55 0 1-.45 1-1s-.45-1-1-1zm0 4h-6c-.55 0-1 .45-1 1s.45 1 1 1h6c.55 0 1-.45 1-1s-.45-1-1-1z"/></svg>