<svg width="18" height="18" viewBox="0 0 18 18" xmlns="http://www.w3.org/2000/svg"><title>timer</title><g fill="#5C5C5C"><path d="M9.044 16c-3.309 0-6-2.691-6-6s2.691-6 6-6 6 2.691 6 6-2.691 6-6 6m8.447-12.773L14.816.55a1.901 1.901 0 0 0-2.676 0l-1.596 1.596A7.972 7.972 0 0 0 9.044 2a7.96 7.96 0 0 0-1.491.145L5.967.559a1.923 1.923 0 0 0-2.706 0L.556 3.265a1.923 1.923 0 0 0 0 2.706L1.62 7.035A7.952 7.952 0 0 0 1.044 10c0 4.411 3.589 8 8 8s8-3.589 8-8a7.941 7.941 0 0 0-.606-3.045l1.053-1.053a1.9 1.9 0 0 0 0-2.675"/><path d="M10 9.586V7a1 1 0 1 0-2 0v3c0 .265.105.52.293.707l2 2a.997.997 0 0 0 1.414 0 .999.999 0 0 0 0-1.414L10 9.586z"/></g></svg>