<svg width="18" height="18" viewBox="0 0 18 18" xmlns="http://www.w3.org/2000/svg"><title>compose</title><path d="M14.989 0c-.494 0-.988.183-1.365.548l-.878.858L4.501 9.79c-.285.278-.501.791-.501 1.182v2.274c0 .415.348.754.771.754h2.335c.409 0 .917-.212 1.203-.489l8.499-8.616.632-.62a1.866 1.866 0 0 0 0-2.666L16.353.548A1.959 1.959 0 0 0 14.989 0zM5.505 12.545v-1.491l.047-.152 7.264-7.431 1.61 1.61-7.218 7.396-.138.068H5.505zM17.01 8a.996.996 0 0 0-.992 1v6.599c0 .389-.444.401-.495.401H2.477c-.051 0-.495-.012-.495-.401V2.5c0-.275.221-.5.495-.5H9.01c.547 0 .99-.447.99-1 0-.553-.443-1-.99-1H2.477C1.111 0 0 1.121 0 2.5v13.099C0 16.945 1.088 18 2.477 18h13.046C16.912 18 18 16.945 18 15.599V9c0-.553-.443-1-.99-1z" fill="#5C5C5C"/></svg>