<svg width="18" height="18" viewBox="0 0 18 18" xmlns="http://www.w3.org/2000/svg"><title>distribute-horiz</title><path d="M17.01 8H16V5c0-.55-.45-1-1-1s-1 .45-1 1v3h-2V3.5C12 2.122 10.879 1 9.5 1h-1A2.503 2.503 0 0 0 6 3.5V8H4V5c0-.55-.45-1-1-1s-1 .45-1 1v3H.99a.99.99 0 0 0-.99.99v.02c0 .546.443.99.99.99H2v3c0 .55.45 1 1 1s1-.45 1-1v-3h2v4.5C6 15.878 7.122 17 8.5 17h1c1.379 0 2.5-1.122 2.5-2.5V10h2v3c0 .55.45 1 1 1s1-.45 1-1v-3h1.01a.99.99 0 0 0 .99-.99v-.02a.99.99 0 0 0-.99-.99zM10 14.5c0 .275-.225.5-.5.5h-1a.501.501 0 0 1-.5-.5v-11c0-.275.225-.5.5-.5h1c.275 0 .5.225.5.5v11z" fill="#5C5C5C"/></svg>