<svg width="18" height="18" viewBox="0 0 18 18" xmlns="http://www.w3.org/2000/svg"><title>copy</title><path d="M10.414 9.747L8.253 7.586A2.003 2.003 0 0 0 6.838 7H4.5A2.502 2.502 0 0 0 2 9.5v6C2 16.879 3.121 18 4.5 18h4c1.379 0 2.5-1.121 2.5-2.5v-4.338c0-.531-.211-1.039-.586-1.415zM9 15.5a.5.5 0 0 1-.5.5h-4a.5.5 0 0 1-.5-.5v-6a.5.5 0 0 1 .5-.5H6v2c0 .55.45 1 1 1h2v3.5zm6.414-12.086L12.586.586A2 2 0 0 0 11.172 0H4.5A2.5 2.5 0 0 0 2 2.5V5a1 1 0 1 0 2 0V2.5a.5.5 0 0 1 .5-.5H10v3c0 .55.45 1 1 1h3v9.5a.5.5 0 0 1-.5.5h-.521a.986.986 0 0 0-.987.98v.03c-.003.546.44.99.985.99h.523a2.5 2.5 0 0 0 2.5-2.5V4.828a2 2 0 0 0-.586-1.414z" fill="#5C5C5C"/></svg>