<svg width="18" height="18" viewBox="0 0 18 18" xmlns="http://www.w3.org/2000/svg"><title>paste</title><path d="M16.414 9.747l-2.161-2.161A2.003 2.003 0 0 0 12.838 7H10.5A2.502 2.502 0 0 0 8 9.5v6c0 1.379 1.121 2.5 2.5 2.5h4c1.379 0 2.5-1.121 2.5-2.5v-4.338c0-.531-.211-1.039-.586-1.415zM15 15.5a.5.5 0 0 1-.5.5h-4a.5.5 0 0 1-.5-.5v-6a.5.5 0 0 1 .5-.5H12v2c0 .55.45 1 1 1h2v3.5zM12.875 2.038V2h-.567L11.462.922C11.1.319 10.449 0 9.746 0h-3.34C5.703 0 5.051.319 4.69.922L3.843 2h-.718v.038A2.494 2.494 0 0 0 1 4.5v9A2.5 2.5 0 0 0 3.5 16H6a1 1 0 0 0 0-2H3.5a.5.5 0 0 1-.5-.5v-9a.5.5 0 0 1 .5-.5h9a.5.5 0 0 1 .5.5V5a1 1 0 0 0 2 0v-.5c0-1.252-.924-2.28-2.125-2.462z" fill="#5C5C5C"/></svg>