<svg width="18" height="18" viewBox="0 0 18 18" xmlns="http://www.w3.org/2000/svg"><title>url</title><path d="M9 0C4.037 0 0 4.037 0 9s4.037 9 9 9 9-4.037 9-9-4.037-9-9-9m7 9c0 1.074-.25 2.089-.685 3H11c-1.016 0-1-1-1-1 0-.55-.45-1-1-1H7.167l-.081.017L7 10c-.55 0-1-.45-1-1s.45-1 1-1v-.006L9 8c.55 0 1-.45 1-1 0 0 0-1 1-1h1c.55 0 1-.45 1-1V3.264A6.993 6.993 0 0 1 16 9M2 9c0-.337.032-.666.078-.99C2.992 8.066 3 9 3 9c0 .55.45 1 1 1 0 0 1 .021 1 1v1c0 .55.45 1 1 1 1 0 1 1 1 1v1.705C4.113 14.842 2 12.164 2 9" fill="#5C5C5C"/></svg>