<svg width="18" height="18" viewBox="0 0 18 18" xmlns="http://www.w3.org/2000/svg"><title>export</title><path d="M10 0h1.171c.531 0 1.04.211 1.415.586l2.828 2.828A2 2 0 0 1 16 4.828V15.5a2.5 2.5 0 0 1-2.5 2.5h-9A2.5 2.5 0 0 1 2 15.5V14a1 1 0 1 1 2 0v1.5a.5.5 0 0 0 .5.5h9a.5.5 0 0 0 .5-.5V6h-3c-.55 0-1-.45-1-1V2H4.5a.5.5 0 0 0-.5.5V6a1 1 0 1 1-2 0V2.5A2.5 2.5 0 0 1 4.5 0H10zM7 12.269V11h3a1 1 0 1 0 0-2H7V7.731c0-.604-.887-.947-1.362-.58L2.31 9.42c-.378.292-.428.868-.05 1.16l3.403 2.269c.476.367 1.337.024 1.337-.58z"/></svg>