<svg width="18" height="18" viewBox="0 0 18 18" xmlns="http://www.w3.org/2000/svg"><title>export-spreadsheet</title><path d="M5 6H3.731c-.604 0-.947-.861-.58-1.337L5.42.26c.292-.378.868-.328 1.16.05l2.269 4.329C9.216 5.113 8.873 6 8.269 6H7v1a1 1 0 1 1-2 0V6zm10.414-1.586l-2.828-2.828A2.001 2.001 0 0 0 11.171 1H10a1 1 0 1 0 0 2v3c0 .55.45 1 1 1h3v1.5a.5.5 0 0 1-.5.5H4a1 1 0 0 0-1 1v5.5A2.5 2.5 0 0 0 5.5 18h8a2.5 2.5 0 0 0 2.5-2.5V5.829c0-.531-.211-1.04-.586-1.415zM5 12h4v-1H5v1zm5 0h4v-1h-4v1zm-5 2h4v-1H5v1zm5 0h4v-1h-4v1zm-5 2h4v-1H5v1zm5 0h4v-1h-4v1z"/></svg>