<svg width="18" height="18" viewBox="0 0 18 18" xmlns="http://www.w3.org/2000/svg"><title>search-folder</title><path d="M16 2H9.232L8.386.922C8.024.319 7.373 0 6.67 0H2a2 2 0 0 0-2 2v14a2 2 0 0 0 2 2h14a2 2 0 0 0 2-2V4a2 2 0 0 0-2-2m-2.457 12.528l-.015.015a.99.99 0 0 1-1.4 0l-2.108-2.109A3.975 3.975 0 0 1 8 13c-2.206 0-4-1.794-4-4s1.794-4 4-4 4 1.794 4 4c0 .739-.216 1.424-.566 2.019l2.109 2.109a.99.99 0 0 1 0 1.4M8 7c-1.102 0-2 .897-2 2 0 1.102.898 2 2 2 1.102 0 2-.898 2-2 0-1.103-.898-2-2-2" fill="#5C5C5C"/></svg>