<svg width="18" height="18" viewBox="0 0 18 18" xmlns="http://www.w3.org/2000/svg"><title>settings</title><path d="M17.1 7.49l-1.39-.284a.365.365 0 0 1-.277-.254 6.545 6.545 0 0 0-.439-1.052.367.367 0 0 1 .015-.377l.784-1.184a1.125 1.125 0 0 0-.143-1.416l-.572-.573a1.125 1.125 0 0 0-1.416-.143l-1.185.784a.373.373 0 0 1-.378.015 6.372 6.372 0 0 0-1.051-.439.369.369 0 0 1-.254-.277L10.51.9A1.125 1.125 0 0 0 9.408 0h-.816c-.534 0-.995.376-1.102.9l-.284 1.39a.369.369 0 0 1-.254.277 6.372 6.372 0 0 0-1.051.439.373.373 0 0 1-.378-.015l-1.185-.784a1.125 1.125 0 0 0-1.416.143l-.572.573c-.378.378-.438.97-.143 1.416l.784 1.184a.367.367 0 0 1 .015.377 6.545 6.545 0 0 0-.439 1.052.365.365 0 0 1-.277.254L.9 7.49c-.524.107-.9.568-.9 1.103v.814c0 .535.376.996.9 1.103l1.39.284a.365.365 0 0 1 .277.254c.116.363.262.715.439 1.051a.369.369 0 0 1-.015.378l-.784 1.184a1.125 1.125 0 0 0 .143 1.416l.572.573c.378.378.971.438 1.416.143l1.185-.784a.371.371 0 0 1 .378-.015c.336.178.687.323 1.051.439.129.04.227.144.254.276L7.49 17.1c.107.524.568.9 1.102.9h.816c.534 0 .995-.376 1.102-.9l.284-1.391a.367.367 0 0 1 .254-.276 6.372 6.372 0 0 0 1.051-.439.371.371 0 0 1 .378.015l1.185.784a1.125 1.125 0 0 0 1.416-.143l.572-.573c.378-.378.438-.97.143-1.416l-.784-1.184a.369.369 0 0 1-.015-.378c.177-.336.323-.688.439-1.051a.365.365 0 0 1 .277-.254l1.39-.284c.524-.107.9-.568.9-1.103v-.814c0-.535-.376-.996-.9-1.103M9 12a3 3 0 1 1 0-6 3 3 0 0 1 0 6" fill="#5C5C5C"/></svg>