<svg width="18" height="18" viewBox="0 0 18 18" xmlns="http://www.w3.org/2000/svg"><title>grid-layout</title><path d="M5.5 8h-3A2.5 2.5 0 0 1 0 5.5v-3A2.5 2.5 0 0 1 2.5 0h3A2.5 2.5 0 0 1 8 2.5v3A2.5 2.5 0 0 1 5.5 8m10 0h-3A2.5 2.5 0 0 1 10 5.5v-3A2.5 2.5 0 0 1 12.5 0h3A2.5 2.5 0 0 1 18 2.5v3A2.5 2.5 0 0 1 15.5 8m0 10h-3a2.5 2.5 0 0 1-2.5-2.5v-3a2.5 2.5 0 0 1 2.5-2.5h3a2.5 2.5 0 0 1 2.5 2.5v3a2.5 2.5 0 0 1-2.5 2.5m-10 0h-3A2.5 2.5 0 0 1 0 15.5v-3A2.5 2.5 0 0 1 2.5 10h3A2.5 2.5 0 0 1 8 12.5v3A2.5 2.5 0 0 1 5.5 18" fill="#5C5C5C"/></svg>