<svg width="18" height="18" viewBox="0 0 18 18" xmlns="http://www.w3.org/2000/svg"><title>heart-outlined</title><path d="M13.028 1c-1.28 0-2.559.488-3.535 1.464A4.987 4.987 0 0 0 5.957 1a4.99 4.99 0 0 0-3.866 1.828C.428 4.842.727 7.841 2.573 9.688l6.212 6.211a.997.997 0 0 0 1.415 0l6.212-6.211c1.846-1.847 2.145-4.846.482-6.86A4.988 4.988 0 0 0 13.028 1m0 2c.899 0 1.746.402 2.324 1.102.968 1.172.812 3.004-.354 4.171l-5.505 5.505-5.505-5.505c-1.167-1.167-1.323-2.999-.355-4.171A3.008 3.008 0 0 1 5.957 3c.801 0 1.555.312 2.121.879l1.415 1.414 1.414-1.414A2.978 2.978 0 0 1 13.028 3"/></svg>