<svg width="18" height="18" viewBox="0 0 18 18" xmlns="http://www.w3.org/2000/svg"><title>import</title><path d="M6 7.731V9H3a1 1 0 1 0 0 2h3v1.269c0 .604.887.947 1.362.58l3.328-2.269c.378-.292.429-.868.051-1.16L7.337 7.151C6.861 6.784 6 7.127 6 7.731m9.414-4.317L12.586.586A2.001 2.001 0 0 0 11.171 0H4.5A2.5 2.5 0 0 0 2 2.5V6a1 1 0 1 0 2 0V2.5a.5.5 0 0 1 .5-.5H10v3c0 .55.45 1 1 1h3v9.5a.5.5 0 0 1-.5.5h-9a.5.5 0 0 1-.5-.5V14a1 1 0 1 0-2 0v1.5A2.5 2.5 0 0 0 4.5 18h9a2.5 2.5 0 0 0 2.5-2.5V4.828a2 2 0 0 0-.586-1.414"/></svg>