<svg width="18" height="18" viewBox="0 0 18 18" xmlns="http://www.w3.org/2000/svg"><title>launch</title><path d="M6.293 11.707a.999.999 0 0 0 1.414 0L14 5.414V9a1 1 0 1 0 2 0V3a1 1 0 0 0-1-1H9a1 1 0 1 0 0 2h3.586l-6.293 6.293a.999.999 0 0 0 0 1.414M15.01 12a.995.995 0 0 0-.991 1v.599c0 .389-.445.401-.496.401H4.477c-.051 0-.495-.012-.495-.401V4.5c0-.275.221-.5.495-.5h.533C5.557 4 6 3.553 6 3c0-.553-.443-1-.99-1h-.533C3.111 2 2 3.121 2 4.5v9.099C2 14.945 3.088 16 4.477 16h9.046C14.912 16 16 14.945 16 13.599V13c0-.553-.443-1-.99-1" fill="#5C5C5C"/></svg>