<svg width="18" height="18" viewBox="0 0 18 18" xmlns="http://www.w3.org/2000/svg"><title>bullet-list</title><path d="M17.99 3.99A.99.99 0 0 0 17 3H4.98a.99.99 0 0 0-.99.99v.02c0 .547.443.99.99.99H17a.99.99 0 0 0 .99-.99v-.02zM1.009 3H.99a.99.99 0 0 0-.99.99v.02c0 .547.443.99.99.99h.019A.99.99 0 0 0 2 4.01v-.02A.99.99 0 0 0 1.009 3zM17.99 8.99A.99.99 0 0 0 17 8H4.98a.99.99 0 0 0-.99.99v.02c0 .547.443.99.99.99H17a.99.99 0 0 0 .99-.99v-.02zM1.009 8H.99a.99.99 0 0 0-.99.99v.02c0 .547.443.99.99.99h.019A.99.99 0 0 0 2 9.01v-.02A.99.99 0 0 0 1.009 8zm16.981 5.99A.99.99 0 0 0 17 13H4.98a.99.99 0 0 0-.99.99v.02c0 .547.443.99.99.99H17a.99.99 0 0 0 .99-.99v-.02zM1.009 13H.99a.99.99 0 0 0-.99.99v.02c0 .547.443.99.99.99h.019A.99.99 0 0 0 2 14.01v-.02a.99.99 0 0 0-.991-.99z" fill="#5C5C5C"/></svg>