<svg width="18" height="18" viewBox="0 0 18 18" xmlns="http://www.w3.org/2000/svg"><title>number-list</title><path d="M18 3.99a.99.99 0 0 0-.99-.99H5.99a.99.99 0 0 0-.99.99v.02c0 .547.443.99.99.99h11.02a.99.99 0 0 0 .99-.99v-.02zm0 5a.99.99 0 0 0-.99-.99H5.99a.99.99 0 0 0-.99.99v.02c0 .547.443.99.99.99h11.02a.99.99 0 0 0 .99-.99v-.02zm0 5a.99.99 0 0 0-.99-.99H5.99a.99.99 0 0 0-.99.99v.02c0 .547.443.99.99.99h11.02a.99.99 0 0 0 .99-.99v-.02zM0 13h2v.5H1v1h1v.5H0v1h3v-4H0v1zm1-7h1V2H0v1h1v3zM0 8h1.8L0 10.1v.9h3v-1H1.2L3 7.9V7H0v1z" fill="#5C5C5C"/></svg>