<svg width="18" height="18" viewBox="0 0 18 18" xmlns="http://www.w3.org/2000/svg"><title>list</title><path d="M17.99 3.99A.99.99 0 0 0 17 3H4.98a.99.99 0 0 0-.99.99v.02c0 .547.443.99.99.99H17a.99.99 0 0 0 .99-.99v-.02zM1.01 3H.99a.99.99 0 0 0-.99.99v.02c0 .547.443.99.99.99h.02A.99.99 0 0 0 2 4.01v-.02A.99.99 0 0 0 1.01 3zm16.98 5.99A.99.99 0 0 0 17 8H4.98a.99.99 0 0 0-.99.99v.02c0 .547.443.99.99.99H17a.99.99 0 0 0 .99-.99v-.02zM1.01 8H.99a.99.99 0 0 0-.99.99v.02c0 .547.443.99.99.99h.02A.99.99 0 0 0 2 9.01v-.02A.99.99 0 0 0 1.01 8zm16.98 5.99A.99.99 0 0 0 17 13H4.98a.99.99 0 0 0-.99.99v.02c0 .547.443.99.99.99H17a.99.99 0 0 0 .99-.99v-.02zM1.01 13H.99a.99.99 0 0 0-.99.99v.02c0 .547.443.99.99.99h.02a.99.99 0 0 0 .99-.99v-.02a.99.99 0 0 0-.99-.99z" fill="#5C5C5C"/></svg>