<svg width="18" height="18" viewBox="0 0 18 18" xmlns="http://www.w3.org/2000/svg"><title>search-list</title><path d="M9.815 11.726a5.316 5.316 0 0 0 .949-3.04 5.388 5.388 0 0 0-5.382-5.383A5.388 5.388 0 0 0 0 8.686a5.387 5.387 0 0 0 5.382 5.381 5.32 5.32 0 0 0 3.042-.95l3.595 3.597a.979.979 0 0 0 .695.286.97.97 0 0 0 .695-.287.986.986 0 0 0 0-1.391l-3.594-3.596zm-4.433.375c-1.883 0-3.415-1.532-3.415-3.415S3.499 5.27 5.382 5.27c1.884 0 3.416 1.533 3.416 3.416s-1.532 3.415-3.416 3.415zM17 4h-6c-.55 0-1-.45-1-1s.45-1 1-1h6c.55 0 1 .45 1 1s-.45 1-1 1zm0 4h-4c-.55 0-1-.45-1-1s.45-1 1-1h4c.55 0 1 .45 1 1s-.45 1-1 1zm0 4h-4c-.55 0-1-.45-1-1s.45-1 1-1h4c.55 0 1 .45 1 1s-.45 1-1 1z" fill="#5C5C5C"/></svg>