<svg width="18" height="18" viewBox="0 0 18 18" xmlns="http://www.w3.org/2000/svg"><title>load</title><path d="M2.053 8.002H.731c-.605 0-.947.526-.58 1l2.268 4.436c.292.378.852.335 1.161-.15l2.268-4.286c.367-.474.025-1-.579-1H4.082A5.007 5.007 0 0 1 8.982 4a4.887 4.887 0 0 1 2.711.818l1.435-1.435A6.936 6.936 0 0 0 8.982 2c-3.52 0-6.443 2.614-6.929 6.002m13.83 1.994h1.358c.604 0 .947-.526.58-1.001L15.552 4.56c-.292-.378-.85-.336-1.16.149l-2.268 4.286c-.368.476-.025 1.001.58 1.001h1.15a5.011 5.011 0 0 1-4.899 3.998 4.899 4.899 0 0 1-2.712-.818l-1.434 1.435a6.923 6.923 0 0 0 4.146 1.381c3.519.001 6.44-2.609 6.928-5.996"/></svg>