<svg width="18" height="18" viewBox="0 0 18 18" xmlns="http://www.w3.org/2000/svg"><title>notes</title><g fill="#5C5C5C"><path d="M14.5 2h-11A2.503 2.503 0 0 0 1 4.5v11C1 16.878 2.122 18 3.5 18h11c1.378 0 2.5-1.122 2.5-2.5v-11C17 3.122 15.878 2 14.5 2m0 2c.275 0 .5.225.5.5v11c0 .275-.225.5-.5.5h-11a.501.501 0 0 1-.5-.5v-11c0-.275.225-.5.5-.5h11"/><path d="M13 9.01a.99.99 0 0 1-.99.99H6a.99.99 0 0 1-.99-.99v-.02A.99.99 0 0 1 6 8h6.01a.99.99 0 0 1 .99.99v.02zm0 4a.99.99 0 0 1-.99.99H5.99a.99.99 0 0 1-.99-.99v-.02a.99.99 0 0 1 .99-.99h6.02a.99.99 0 0 1 .99.99v.02zm0-8a.99.99 0 0 1-.99.99h-.02a.99.99 0 0 1-.99-.99V.99a.99.99 0 0 1 .99-.99h.02a.99.99 0 0 1 .99.99v4.02zm-6 0a.99.99 0 0 1-.99.99h-.02A.99.99 0 0 1 5 5.01V.99A.99.99 0 0 1 5.99 0h.02A.99.99 0 0 1 7 .99v4.02z"/></g></svg>