<svg width="18" height="18" viewBox="0 0 18 18" xmlns="http://www.w3.org/2000/svg"><title>attach</title><path d="M9.356 0C6.403 0 4 2.46 4 5.485v8.545C4 16.256 5.7 18 7.932 18 10.137 18 12 16.182 12 14.03V6.417C12 5.084 10.841 4 9.387 4 8.026 4 7 5.039 7 6.417V11a1 1 0 1 0 2 0V6.417C9 6.14 9.13 6 9.416 6c.275 0 .584.178.584.417v7.613C10 15.098 9.053 16 7.871 16 6.805 16 6 15.153 6 14.03V5.485C6 3.531 7.475 2 9.446 2 11.373 2 13 3.596 13 5.485V14a1 1 0 1 0 2 0V5.485C15 2.512 12.457 0 9.356 0" fill="#5C5C5C"/></svg>