<svg width="18" height="18" viewBox="0 0 18 18" xmlns="http://www.w3.org/2000/svg"><title>save</title><path d="M13 9.99a.99.99 0 0 0-.99-.99H5.99a.99.99 0 0 0-.99.99v.02c0 .547.443.99.99.99h6.02a.99.99 0 0 0 .99-.99v-.02zm0 3a.99.99 0 0 0-.99-.99H5.99a.99.99 0 0 0-.99.99v.02c0 .547.443.99.99.99h6.02a.99.99 0 0 0 .99-.99v-.02zM5.5 3h5a.5.5 0 0 0 .5-.5v-2a.5.5 0 0 0-.5-.5h-5a.5.5 0 0 0-.5.5v2a.5.5 0 0 0 .5.5zm11.942 1.322L14 .586a1.977 1.977 0 0 0-1.047-.55c.028.15.047.305.047.464v2C13 3.879 11.878 5 10.5 5H5.599C4.22 5 3 3.879 3 2.5v-2c0-.171.116-.339.149-.5H2.5A2.503 2.503 0 0 0 0 2.5v13C0 16.879 1.122 18 2.5 18h13c1.378 0 2.5-1.121 2.5-2.5V5.707a1.96 1.96 0 0 0-.558-1.385zM16 15.5c0 .275-.225.5-.5.5h-13a.501.501 0 0 1-.5-.5v-8a.5.5 0 0 1 .5-.5h13a.5.5 0 0 1 .5.5v8z" fill="#5C5C5C"/></svg>