<svg width="18" height="18" viewBox="0 0 18 18" xmlns="http://www.w3.org/2000/svg"><title>cut</title><path d="M11.414 9l6.311-6.311a.979.979 0 0 0-.015-1.385l-.014-.014a.979.979 0 0 0-1.385-.015L10 7.586 7.753 5.339A3.97 3.97 0 0 0 8 4c0-2.206-1.794-4-4-4S0 1.794 0 4s1.794 4 4 4c.997 0 1.899-.38 2.601-.985L8.586 9l-1.985 1.986A3.967 3.967 0 0 0 4 10c-2.206 0-4 1.794-4 4s1.794 4 4 4 4-1.794 4-4a3.97 3.97 0 0 0-.247-1.339L10 10.414l6.311 6.311a.979.979 0 0 0 1.385-.015l.014-.014a.979.979 0 0 0 .015-1.385L11.414 9zM4 6c-1.102 0-2-.897-2-2 0-1.102.898-2 2-2 1.102 0 2 .898 2 2 0 1.103-.898 2-2 2zm0 10c-1.102 0-2-.898-2-2 0-1.102.898-2 2-2 1.102 0 2 .898 2 2 0 1.102-.898 2-2 2z"/></svg>