<svg width="18" height="18" viewBox="0 0 18 18" xmlns="http://www.w3.org/2000/svg"><title>send</title><path d="M17 9a1 1 0 0 0-1 1v5.599c0 .389-.449.401-.5.401h-13c-.051 0-.5-.012-.5-.401V6.5a.5.5 0 0 1 .5-.5H4a1 1 0 1 0 0-2H2.5A2.503 2.503 0 0 0 0 6.5v9.099C0 16.945 1.098 18 2.5 18h13c1.402 0 2.5-1.055 2.5-2.401V10a1 1 0 0 0-1-1M6.586 11.099a.56.56 0 0 0 .556-.415c.551-2.343 2.131-3.536 4.858-3.9v1.393c0 .68.698 1.066 1.206.652l4.5-3.677c.404-.329.396-.975-.009-1.304L13.21.17C12.703-.243 12 .143 12 .823v1.58c-3.472.726-5.773 3.441-5.99 8.177-.012.281.254.519.576.519"/></svg>