<svg width="18" height="18" viewBox="0 0 18 18" xmlns="http://www.w3.org/2000/svg"><title>sort-up</title><path d="M17.997 15.01a.99.99 0 0 1-.99.99h-9.02a.99.99 0 0 1-.99-.99v-.02a.99.99 0 0 1 .99-.99h9.02a.99.99 0 0 1 .99.99v.02zm0-5a.99.99 0 0 1-.99.99h-9.02a.99.99 0 0 1-.99-.99v-.02a.99.99 0 0 1 .99-.99h9.02a.99.99 0 0 1 .99.99v.02zM17.007 6h-6.01c-.547 0-1-.443-1-.99v-.02c0-.547.47-.99.99-.99h6.02a.99.99 0 0 1 .99.99v.02a.99.99 0 0 1-.99.99zM7.269 6H4.997v11a1 1 0 1 1-2 0V6H.732c-.606 0-.948-.887-.58-1.361L3.419.31c.293-.378.868-.428 1.16-.05l3.27 4.403C8.216 5.139 7.872 6 7.269 6z" fill="#5C5C5C"/></svg>