<svg width="18" height="18" viewBox="0 0 18 18" xmlns="http://www.w3.org/2000/svg"><title>star-outlined</title><path d="M9.005 2.937l1.479 4.552h4.596l-2.772 1.927-.921.639 1.457 4.407-2.957-2.158-.878-.641-3.846 2.769 1.459-4.376-.923-.64-2.777-1.927h4.599l1.484-4.552M9.011 0a.853.853 0 0 0-.824.602L6.433 5.989H.861c-.842 0-1.182 1.073-.489 1.557l4.472 3.102-1.727 5.176a.87.87 0 0 0 .817 1.148.85.85 0 0 0 .497-.165l4.572-3.291 4.57 3.336c.16.116.333.168.501.168.539 0 1.019-.534.817-1.143l-1.728-5.229 4.465-3.102c.693-.482.354-1.557-.488-1.557h-5.566L9.819.59A.835.835 0 0 0 9.011 0"/></svg>