<svg xmlns="http://www.w3.org/2000/svg"><symbol id="align-bottom" viewBox="0 0 18 18"><title>bottom-align</title><path d="M13.5 6A2.502 2.502 0 0 0 11 8.5v4c0 1.379 1.121 2.5 2.5 2.5s2.5-1.121 2.5-2.5v-4C16 7.121 14.879 6 13.5 6zM16 16H.99a.99.99 0 0 0-.99.99v.02c0 .547.443.99.99.99H16v-2zm1.01 0H16v2h1.01a.99.99 0 0 0 .99-.99v-.02a.99.99 0 0 0-.99-.99zM6.5 2c.275 0 .5.225.5.5v10c0 .275-.225.5-.5.5h-2a.501.501 0 0 1-.5-.5v-10c0-.275.225-.5.5-.5h2zm0-2h-2A2.503 2.503 0 0 0 2 2.5v10C2 13.878 3.122 15 4.5 15h2C7.878 15 9 13.878 9 12.5v-10C9 1.121 7.878 0 6.5 0z" fill="#5C5C5C"/></symbol><symbol id="align-horiz-center" viewBox="0 0 18 18"><title>horiz-center-align</title><path d="M2 8V6.5C2 5.121 3.121 4 4.5 4S7 5.121 7 6.5V8h2v2H7v1.5C7 12.879 5.879 14 4.5 14S2 12.879 2 11.5V10H.99A.99.99 0 0 1 0 9.01v-.02A.99.99 0 0 1 .99 8H2zm15.01 0H16v2h1.01a.99.99 0 0 0 .99-.99v-.02a.99.99 0 0 0-.99-.99zM13.5 3c.275 0 .5.225.5.5v11c0 .275-.225.5-.5.5h-2a.501.501 0 0 1-.5-.5v-11c0-.275.225-.5.5-.5h2zm0-2h-2A2.503 2.503 0 0 0 9 3.5v11c0 1.379 1.122 2.5 2.5 2.5h2c1.378 0 2.5-1.121 2.5-2.5v-11C16 2.122 14.878 1 13.5 1z" fill="#5C5C5C"/></symbol><symbol id="align-left" viewBox="0 0 18 18"><title>left-align</title><path d="M3 4.5C3 5.879 4.121 7 5.5 7h4C10.879 7 12 5.879 12 4.5S10.879 2 9.5 2h-4A2.502 2.502 0 0 0 3 4.5zM0 2v15.01c0 .547.443.99.99.99h.02a.99.99 0 0 0 .99-.99V2H0zM0 .99V2h2V.99A.99.99 0 0 0 1.01 0H.99A.99.99 0 0 0 0 .99zM15.5 11c.275 0 .5.225.5.5v2c0 .275-.225.5-.5.5h-10a.501.501 0 0 1-.5-.5v-2c0-.275.225-.5.5-.5h10zm0-2h-10A2.502 2.502 0 0 0 3 11.5v2C3 14.879 4.121 16 5.5 16h10c1.378 0 2.5-1.121 2.5-2.5v-2c0-1.379-1.122-2.5-2.5-2.5z" fill="#5C5C5C"/></symbol><symbol id="align-right" viewBox="0 0 18 18"><title>right-align</title><path d="M6 4.5C6 5.879 7.121 7 8.5 7h4C13.879 7 15 5.879 15 4.5S13.879 2 12.5 2h-4A2.502 2.502 0 0 0 6 4.5zM16 2v15.01c0 .547.443.99.99.99h.02a.99.99 0 0 0 .99-.99V2h-2zm0-1.01V2h2V.99a.99.99 0 0 0-.99-.99h-.02a.99.99 0 0 0-.99.99zM12.5 11c.275 0 .5.225.5.5v2c0 .275-.225.5-.5.5h-10a.501.501 0 0 1-.5-.5v-2c0-.275.225-.5.5-.5h10zm0-2h-10A2.502 2.502 0 0 0 0 11.5v2C0 14.878 1.121 16 2.5 16h10c1.378 0 2.5-1.122 2.5-2.5v-2c0-1.379-1.122-2.5-2.5-2.5z" fill="#5C5C5C"/></symbol><symbol id="align-top" viewBox="0 0 18 18"><title>top-align</title><path d="M6.55 5c.275 0 .5.225.5.5v10c0 .275-.225.5-.5.5h-2a.5.5 0 0 1-.5-.5v-10a.5.5 0 0 1 .5-.5h2zm0-2h-2a2.502 2.502 0 0 0-2.5 2.5v10c0 1.378 1.121 2.5 2.5 2.5h2c1.378 0 2.5-1.122 2.5-2.5v-10c0-1.379-1.122-2.5-2.5-2.5zm10.46-3H16v2h1c.547 0 1-.443 1-.99V.99a.99.99 0 0 0-.99-.99zM16 0H.99A.99.99 0 0 0 0 .99v.02C0 1.557.453 2 1 2h15V0zm-2.5 3A2.502 2.502 0 0 0 11 5.5v4c0 1.379 1.121 2.5 2.5 2.5S16 10.879 16 9.5v-4C16 4.121 14.879 3 13.5 3z" fill="#5C5C5C"/></symbol><symbol id="align-vertical-middle" viewBox="0 0 18 18"><title>vertical-middle-align</title><path d="M10 2h1.5C12.879 2 14 3.121 14 4.5S12.879 7 11.5 7H10v2H8V7H6.5C5.121 7 4 5.879 4 4.5S5.121 2 6.5 2H8V.99A.99.99 0 0 1 8.99 0h.02a.99.99 0 0 1 .99.99V2zm0 15.01V16H8v1.01c0 .547.443.99.99.99h.02a.99.99 0 0 0 .99-.99zM14.5 11c.275 0 .5.225.5.5v2c0 .275-.225.5-.5.5h-11a.501.501 0 0 1-.5-.5v-2c0-.275.225-.5.5-.5h11zm0-2h-11A2.502 2.502 0 0 0 1 11.5v2C1 14.879 2.121 16 3.5 16h11c1.378 0 2.5-1.121 2.5-2.5v-2c0-1.379-1.122-2.5-2.5-2.5z" fill="#5C5C5C"/></symbol><symbol id="arrow-down" viewBox="0 0 18 18"><title>down-arrow</title><path d="M9.715 15.77l.062-.063h.001l4.999-5a.999.999 0 0 0 0-1.414 1.037 1.037 0 0 0-1.445 0l-3.324 3.293V3c0-.553-.386-1-.938-1a1 1 0 0 0-1 1v9.625L4.684 9.356a.98.98 0 0 0-1.399 0 1.002 1.002 0 0 0 .012 1.413l5.002 5.001c.391.39 1.025.39 1.416 0" fill="#5C5C5C"/></symbol><symbol id="arrow-left" viewBox="0 0 18 18"><title>left-arrow</title><path d="M17 8H3.436l5.33-5.289a1 1 0 1 0-1.407-1.422l-7.062 7a1 1 0 0 0-.009 1.414l7 7.062a1 1 0 1 0 1.424-1.405L3.394 10H17a1 1 0 1 0 0-2" fill="#5C5C5C"/></symbol><symbol id="arrow-right-2" viewBox="0 0 18 18"><path fill="#3F4347" d="M15.77 8.355l-.062-.062-.001-.001-5-5a.999.999 0 1 0-1.414 1.414L12.586 8H3a1 1 0 0 0 0 2h9.711l-3.355 3.355a.999.999 0 1 0 1.414 1.414l5-5a1 1 0 0 0 0-1.414z"/></symbol><symbol id="arrow-right" viewBox="0 0 18 18"><title>right-arrow</title><path d="M1 8h13.564l-5.33-5.289a1 1 0 1 1 1.407-1.422l7.062 7a1 1 0 0 1 .009 1.414l-7 7.062a1 1 0 1 1-1.424-1.405L14.606 10H1a1 1 0 1 1 0-2" fill="#5C5C5C"/></symbol><symbol id="arrow-up" viewBox="0 0 18 18"><title>up-arrow</title><path d="M9.715 2.292l.062.063h.001l4.999 5a.999.999 0 0 1 0 1.414 1.037 1.037 0 0 1-1.445 0l-3.324-3.293v9.586c0 .553-.386 1-.938 1a1 1 0 0 1-1-1V5.437L4.684 8.706a.98.98 0 0 1-1.399 0 1.002 1.002 0 0 1 .012-1.413l5.002-5.001a1.003 1.003 0 0 1 1.416 0" fill="#5C5C5C"/></symbol><symbol id="bookmark-filled" viewBox="0 0 18 18"><title>bookmark-filled</title><path d="M15 2.5C15 1.125 13.875 0 12.5 0h-7A2.507 2.507 0 0 0 3 2.5V17l.004-.022a.994.994 0 0 0 1.704.728L9 13l4.296 4.711a1 1 0 0 0 1.703-.762v.003L15 2.5" fill="#5C5C5C"/></symbol><symbol id="bookmark" viewBox="0 0 18 18"><title>bookmark-outlined</title><path d="M12.5 0h-7A2.507 2.507 0 0 0 3 2.5V17l.004-.022a.994.994 0 0 0 1.704.728L9 13l4.296 4.711A1 1 0 0 0 15 16.95V2.5C15 1.125 13.875 0 12.5 0zM5 13.701V2.5c0-.271.229-.5.5-.5h7c.271 0 .5.229.5.5l-.001 11.918L9 10.032l-1.478 1.62L5 14.406v-.705z" fill="#5C5C5C"/></symbol><symbol id="briefcase-filled" viewBox="0 0 18 18"><title>roles</title><path d="M15.5 5H13V3.5C13 2.125 11.875 1 10.5 1h-3A2.507 2.507 0 0 0 5 3.5V5H2.5A2.5 2.5 0 0 0 0 7.5v7A2.5 2.5 0 0 0 2.5 17h13a2.5 2.5 0 0 0 2.5-2.5v-7A2.5 2.5 0 0 0 15.5 5zM7 3.5c0-.271.229-.5.5-.5h3c.271 0 .5.229.5.5V5H7V3.5z" fill="#5C5C5C"/></symbol><symbol id="calendar" viewBox="0 0 18 18"><title>calendar</title><path d="M15.5 2H15V.99a.99.99 0 0 0-.99-.99h-.02a.99.99 0 0 0-.99.99V2H5V.99A.99.99 0 0 0 4.01 0h-.02A.99.99 0 0 0 3 .99V2h-.5A2.503 2.503 0 0 0 0 4.5v11C0 16.878 1.122 18 2.5 18h13c1.378 0 2.5-1.122 2.5-2.5v-11C18 3.122 16.878 2 15.5 2zm.5 13.5a.5.5 0 0 1-.5.5h-13a.5.5 0 0 1-.5-.5v-7a.5.5 0 0 1 .5-.5h13a.5.5 0 0 1 .5.5v7z" fill="#5C5C5C"/></symbol><symbol id="camera" viewBox="0 0 18 18"><title>camera</title><path d="M13.239 4l-.846-1.078C12.031 2.319 11.38 2 10.677 2h-3.34c-.703 0-1.355.319-1.716.922L4.774 4H2a2 2 0 0 0-2 2v9.996a2 2 0 0 0 2 2h13.994a2 2 0 0 0 2-2V6a2 2 0 0 0-2-2h-2.755zm-9.251 6.998A5.003 5.003 0 0 1 8.997 6a5.003 5.003 0 0 1 5.009 4.998 5.005 5.005 0 0 1-5.009 4.998 5.004 5.004 0 0 1-5.009-4.998zm5.009-2.999a3.005 3.005 0 0 0-3.006 2.999 3.006 3.006 0 1 0 6.012 0 3.005 3.005 0 0 0-3.006-2.999" fill="#5C5C5C"/></symbol><symbol id="cancel" viewBox="0 0 18 18"><title>cancel</title><path d="M9 0C4.037 0 0 4.037 0 9s4.037 9 9 9 9-4.037 9-9-4.037-9-9-9M2 9c0-3.859 3.141-7 7-7 1.57 0 3.015.526 4.184 1.402l-9.782 9.782A6.953 6.953 0 0 1 2 9m7 7a6.953 6.953 0 0 1-4.184-1.402l9.782-9.782A6.953 6.953 0 0 1 16 9c0 3.859-3.141 7-7 7" fill="#5C5C5C"/></symbol><symbol id="caps-lock" viewBox="0 0 18 18"><title>caps-lock-indicator</title><path d="M15 10a.999.999 0 0 1-1.707.707L9 6.414l-4.293 4.293a.999.999 0 1 1-1.414-1.414l5-5a.999.999 0 0 1 1.414 0l5 5A.997.997 0 0 1 15 10m-1 5H4c-.55 0-1-.45-1-1s.45-1 1-1h10c.55 0 1 .45 1 1s-.45 1-1 1" fill="#5C5C5C"/></symbol><symbol id="caret-double-left@1x" viewBox="0 0 18 18"><title>collapse-context-app-tray@1x</title><path d="M15 15a.997.997 0 0 1-.707-.293l-5-5a.999.999 0 0 1 0-1.414l5-5a.999.999 0 1 1 1.414 1.414L11.414 9l4.293 4.293A.999.999 0 0 1 15 15m-6 0a.997.997 0 0 1-.707-.293l-5-5a.999.999 0 0 1 0-1.414l5-5a.999.999 0 1 1 1.414 1.414L5.414 9l4.293 4.293A.999.999 0 0 1 9 15" fill="#5C5C5C"/></symbol><symbol id="caret-double-right@1x" viewBox="0 0 18 18"><title>expand-context-app-tray@1x</title><path d="M4 15a.999.999 0 0 1-.707-1.707L7.586 9 3.293 4.707a.999.999 0 1 1 1.414-1.414l5 5a.999.999 0 0 1 0 1.414l-5 5A.997.997 0 0 1 4 15m6 0a.999.999 0 0 1-.707-1.707L13.586 9 9.293 4.707a.999.999 0 1 1 1.414-1.414l5 5a.999.999 0 0 1 0 1.414l-5 5A.997.997 0 0 1 10 15" fill="#5C5C5C"/></symbol><symbol id="caret-down@1x" viewBox="0 0 18 18"><title>expand@1x</title><path d="M3 6a.999.999 0 0 1 1.707-.707L9 9.586l4.293-4.293a.999.999 0 1 1 1.414 1.414l-5 5a.999.999 0 0 1-1.414 0l-5-5A.997.997 0 0 1 3 6" fill="#5C5C5C"/></symbol><symbol id="caret-up@1x" viewBox="0 0 18 18"><title>collapse@1x</title><path d="M15 11a.999.999 0 0 1-1.707.707L9 7.414l-4.293 4.293a.999.999 0 1 1-1.414-1.414l5-5a.999.999 0 0 1 1.414 0l5 5A.997.997 0 0 1 15 11" fill="#5C5C5C"/></symbol><symbol id="cart" viewBox="0 0 18 18"><title>cart</title><path d="M16 11H7.388l.674-2h6.952A1 1 0 0 0 16 8.167l1.986-5A1 1 0 0 0 17 2H4.618L3.895.553A1.001 1.001 0 0 0 3 0H2a1 1 0 1 0 0 2h.382L5.92 9.077l-.868 2.607A.996.996 0 0 0 6 13h10a1 1 0 1 0 0-2m-7 5a2 2 0 1 0-3.999-.001A2 2 0 0 0 9 16m8 0a2 2 0 1 0-3.999-.001A2 2 0 0 0 17 16" fill="#5C5C5C"/></symbol><symbol id="check" viewBox="0 0 18 18"><title>check</title><path d="M6.063 14.999a.999.999 0 0 1-.703-.288L.297 9.71a.999.999 0 1 1 1.406-1.422l4.353 4.299 9.235-9.293a1 1 0 0 1 1.418 1.41l-9.937 10a1.001 1.001 0 0 1-.709.295" fill="#5C5C5C"/></symbol><symbol id="checkbox" viewBox="0 0 18 18"><title>check-box</title><path d="M9.063 13a.999.999 0 0 1-.703-.288L4.297 8.711a.998.998 0 0 1-.008-1.413.998.998 0 0 1 1.414-.009l3.353 3.299 7.235-7.293a1 1 0 0 1 1.418 1.41l-7.937 8a1.001 1.001 0 0 1-.709.295M15 10a1 1 0 0 0-1 1v3.599c0 .389-.449.401-.5.401h-10c-.051 0-.5-.012-.5-.401V4.5a.5.5 0 0 1 .5-.5H13a1 1 0 1 0 0-2H3.5A2.503 2.503 0 0 0 1 4.5v10.099C1 15.945 2.098 17 3.5 17h10c1.402 0 2.5-1.055 2.5-2.401V11a1 1 0 0 0-1-1" fill="#5C5C5C"/></symbol><symbol id="clipboard-filled" viewBox="0 0 18 18"><title>inventory</title><path d="M4.894 18H2.993h.508a2.5 2.5 0 0 1-2.5-2.5v-11c0-1.252.924-2.28 2.125-2.462V2h1.718L5.691.922C6.052.319 6.704 0 7.407 0h3.34c.703 0 1.354.319 1.716.922L13.309 2h1.567v.038A2.494 2.494 0 0 1 17.001 4.5v11a2.5 2.5 0 0 1-2.5 2.5H4.894zm0-2H2.993h.508a.5.5 0 0 1-.5-.5v-11a.5.5 0 0 1 .5-.5h11a.5.5 0 0 1 .5.5v11a.5.5 0 0 1-.5.5H4.894zm7.107-9h-6c-.55 0-1 .45-1 1s.45 1 1 1h6c.55 0 1-.45 1-1s-.45-1-1-1zm0 4h-6c-.55 0-1 .45-1 1s.45 1 1 1h6c.55 0 1-.45 1-1s-.45-1-1-1z" fill="#5C5C5C"/></symbol><symbol id="clock-timer" viewBox="0 0 18 18"><title>timer</title><g fill="#5C5C5C"><path d="M9.044 16c-3.309 0-6-2.691-6-6s2.691-6 6-6 6 2.691 6 6-2.691 6-6 6m8.447-12.773L14.816.55a1.901 1.901 0 0 0-2.676 0l-1.596 1.596A7.972 7.972 0 0 0 9.044 2a7.96 7.96 0 0 0-1.491.145L5.967.559a1.923 1.923 0 0 0-2.706 0L.556 3.265a1.923 1.923 0 0 0 0 2.706L1.62 7.035A7.952 7.952 0 0 0 1.044 10c0 4.411 3.589 8 8 8s8-3.589 8-8a7.941 7.941 0 0 0-.606-3.045l1.053-1.053a1.9 1.9 0 0 0 0-2.675"/><path d="M10 9.586V7a1 1 0 1 0-2 0v3c0 .265.105.52.293.707l2 2a.997.997 0 0 0 1.414 0 .999.999 0 0 0 0-1.414L10 9.586z"/></g></symbol><symbol id="clock" viewBox="0 0 18 18"><title>clock</title><path d="M9 0C4.037 0 0 4.037 0 9s4.037 9 9 9 9-4.037 9-9-4.037-9-9-9m0 16c-3.859 0-7-3.141-7-7s3.141-7 7-7 7 3.141 7 7-3.141 7-7 7m1-7.414V6a1 1 0 1 0-2 0v3c0 .266.105.519.293.707l2 2a.997.997 0 0 0 1.414 0 .999.999 0 0 0 0-1.414L10 8.586" fill="#5C5C5C"/></symbol><symbol id="close" viewBox="0 0 18 18"><title>close</title><path d="M10.414 9l5.293-5.293a.999.999 0 1 0-1.414-1.414L9 7.586 3.707 2.293a.999.999 0 1 0-1.414 1.414L7.586 9l-5.293 5.293a.999.999 0 1 0 1.414 1.414L9 10.414l5.293 5.293a.997.997 0 0 0 1.414 0 .999.999 0 0 0 0-1.414L10.414 9" fill="#5C5C5C"/></symbol><symbol id="columns" viewBox="0 0 18 18"><title>columns</title><path d="M15.5 0h-12A2.502 2.502 0 0 0 1 2.5v13C1 16.878 2.121 18 3.5 18h12c1.378 0 2.5-1.122 2.5-2.5v-13C18 1.121 16.878 0 15.5 0zm-12 16a.501.501 0 0 1-.5-.5v-13c0-.275.225-.5.5-.5H6v14H3.5zM8 16h3V2H8v14zm8-.5c0 .275-.225.5-.5.5H13V2h2.5c.275 0 .5.225.5.5v13z" fill="#5C5C5C"/></symbol><symbol id="compose" viewBox="0 0 18 18"><title>compose</title><path d="M14.989 0c-.494 0-.988.183-1.365.548l-.878.858L4.501 9.79c-.285.278-.501.791-.501 1.182v2.274c0 .415.348.754.771.754h2.335c.409 0 .917-.212 1.203-.489l8.499-8.616.632-.62a1.866 1.866 0 0 0 0-2.666L16.353.548A1.959 1.959 0 0 0 14.989 0zM5.505 12.545v-1.491l.047-.152 7.264-7.431 1.61 1.61-7.218 7.396-.138.068H5.505zM17.01 8a.996.996 0 0 0-.992 1v6.599c0 .389-.444.401-.495.401H2.477c-.051 0-.495-.012-.495-.401V2.5c0-.275.221-.5.495-.5H9.01c.547 0 .99-.447.99-1 0-.553-.443-1-.99-1H2.477C1.111 0 0 1.121 0 2.5v13.099C0 16.945 1.088 18 2.477 18h13.046C16.912 18 18 16.945 18 15.599V9c0-.553-.443-1-.99-1z" fill="#5C5C5C"/></symbol><symbol id="contract" viewBox="0 0 18 18"><title>contract</title><path d="M1 14h3v3a1 1 0 1 0 2 0v-4a1 1 0 0 0-1-1H1a1 1 0 1 0 0 2m12-8h4a1 1 0 1 0 0-2h-3V1a1 1 0 1 0-2 0v4a1 1 0 0 0 1 1M4 1v3H1a1 1 0 1 0 0 2h4a1 1 0 0 0 1-1V1a1 1 0 1 0-2 0m8 12v4a1 1 0 1 0 2 0v-3h3a1 1 0 1 0 0-2h-4a1 1 0 0 0-1 1" fill="#5C5C5C"/></symbol><symbol id="distribute-horiz" viewBox="0 0 18 18"><title>distribute-horiz</title><path d="M17.01 8H16V5c0-.55-.45-1-1-1s-1 .45-1 1v3h-2V3.5C12 2.122 10.879 1 9.5 1h-1A2.503 2.503 0 0 0 6 3.5V8H4V5c0-.55-.45-1-1-1s-1 .45-1 1v3H.99a.99.99 0 0 0-.99.99v.02c0 .546.443.99.99.99H2v3c0 .55.45 1 1 1s1-.45 1-1v-3h2v4.5C6 15.878 7.122 17 8.5 17h1c1.379 0 2.5-1.122 2.5-2.5V10h2v3c0 .55.45 1 1 1s1-.45 1-1v-3h1.01a.99.99 0 0 0 .99-.99v-.02a.99.99 0 0 0-.99-.99zM10 14.5c0 .275-.225.5-.5.5h-1a.501.501 0 0 1-.5-.5v-11c0-.275.225-.5.5-.5h1c.275 0 .5.225.5.5v11z" fill="#5C5C5C"/></symbol><symbol id="document-copy" viewBox="0 0 18 18"><title>copy</title><path d="M10.414 9.747L8.253 7.586A2.003 2.003 0 0 0 6.838 7H4.5A2.502 2.502 0 0 0 2 9.5v6C2 16.879 3.121 18 4.5 18h4c1.379 0 2.5-1.121 2.5-2.5v-4.338c0-.531-.211-1.039-.586-1.415zM9 15.5a.5.5 0 0 1-.5.5h-4a.5.5 0 0 1-.5-.5v-6a.5.5 0 0 1 .5-.5H6v2c0 .55.45 1 1 1h2v3.5zm6.414-12.086L12.586.586A2 2 0 0 0 11.172 0H4.5A2.5 2.5 0 0 0 2 2.5V5a1 1 0 1 0 2 0V2.5a.5.5 0 0 1 .5-.5H10v3c0 .55.45 1 1 1h3v9.5a.5.5 0 0 1-.5.5h-.521a.986.986 0 0 0-.987.98v.03c-.003.546.44.99.985.99h.523a2.5 2.5 0 0 0 2.5-2.5V4.828a2 2 0 0 0-.586-1.414z" fill="#5C5C5C"/></symbol><symbol id="document-new" viewBox="0 0 18 18"><title>new-document</title><path d="M15.414 3.414L12.586.586A2.001 2.001 0 0 0 11.171 0H4.5A2.503 2.503 0 0 0 2 2.5v13C2 16.879 3.122 18 4.5 18h9c1.378 0 2.5-1.121 2.5-2.5V4.828a2 2 0 0 0-.586-1.414zM14 15.5a.5.5 0 0 1-.5.5h-9a.5.5 0 0 1-.5-.5v-13a.5.5 0 0 1 .5-.5H10v3c0 .55.45 1 1 1h3v9.5zM8 9V7.99A.99.99 0 0 1 8.99 7h.02a.99.99 0 0 1 .99.99V9h1.01a.99.99 0 0 1 .99.99v.02a.99.99 0 0 1-.99.99H10v1.01a.99.99 0 0 1-.99.99h-.02a.99.99 0 0 1-.99-.99V11H6.99a.99.99 0 0 1-.99-.99v-.02A.99.99 0 0 1 6.99 9H8z" fill="#5C5C5C"/></symbol><symbol id="document-paste" viewBox="0 0 18 18"><title>paste</title><path d="M16.414 9.747l-2.161-2.161A2.003 2.003 0 0 0 12.838 7H10.5A2.502 2.502 0 0 0 8 9.5v6c0 1.379 1.121 2.5 2.5 2.5h4c1.379 0 2.5-1.121 2.5-2.5v-4.338c0-.531-.211-1.039-.586-1.415zM15 15.5a.5.5 0 0 1-.5.5h-4a.5.5 0 0 1-.5-.5v-6a.5.5 0 0 1 .5-.5H12v2c0 .55.45 1 1 1h2v3.5zM12.875 2.038V2h-.567L11.462.922C11.1.319 10.449 0 9.746 0h-3.34C5.703 0 5.051.319 4.69.922L3.843 2h-.718v.038A2.494 2.494 0 0 0 1 4.5v9A2.5 2.5 0 0 0 3.5 16H6a1 1 0 0 0 0-2H3.5a.5.5 0 0 1-.5-.5v-9a.5.5 0 0 1 .5-.5h9a.5.5 0 0 1 .5.5V5a1 1 0 0 0 2 0v-.5c0-1.252-.924-2.28-2.125-2.462z" fill="#5C5C5C"/></symbol><symbol id="document" viewBox="0 0 18 18"><title>document</title><path d="M15.414 3.414L12.586.586A2.001 2.001 0 0 0 11.171 0H4.5A2.503 2.503 0 0 0 2 2.5v13C2 16.879 3.122 18 4.5 18h9c1.378 0 2.5-1.121 2.5-2.5V4.828a2 2 0 0 0-.586-1.414zM14 15.5a.5.5 0 0 1-.5.5h-9a.5.5 0 0 1-.5-.5v-13a.5.5 0 0 1 .5-.5H10v3c0 .55.45 1 1 1h3v9.5z" fill="#5C5C5C"/></symbol><symbol id="download" viewBox="0 0 18 18"><title>download</title><path d="M1 13a1 1 0 0 0-1 1v1.599C0 16.945 1.098 18 2.5 18h13c1.402 0 2.5-1.055 2.5-2.401V14a1 1 0 1 0-2 0v1.599c0 .389-.448.401-.5.401h-13c-.052 0-.5-.012-.5-.401V14a1 1 0 0 0-1-1m8.707.769l5.062-5.062a.999.999 0 0 0 0-1.414 1.037 1.037 0 0 0-1.445 0L10 10.586V1a1 1 0 1 0-2 0v9.711L4.676 7.355a.983.983 0 0 0-1.684.707c0 .256.102.512.297.707l5.002 5a1.001 1.001 0 0 0 1.416 0" fill="#5C5C5C"/></symbol><symbol id="drill-down" viewBox="0 0 18 18"><title>drill-down</title><path d="M15.5 0h-13A2.503 2.503 0 0 0 0 2.5v13C0 16.879 1.121 18 2.5 18h13c1.378 0 2.5-1.121 2.5-2.5v-13C18 1.122 16.878 0 15.5 0zm.5 15.5c0 .275-.225.5-.5.5h-13a.501.501 0 0 1-.5-.5v-9a.5.5 0 0 1 .5-.5h13a.5.5 0 0 1 .5.5v9zM9 8.731V10H5a1 1 0 1 0 0 2h4v1.269c0 .604.887.947 1.362.58l3.328-2.269c.378-.292.429-.868.051-1.16l-3.404-2.269C9.861 7.784 9 8.127 9 8.731z" fill="#5C5C5C"/></symbol><symbol id="duplicate" viewBox="0 0 18 18"><title>duplicate</title><path d="M16 6.5v9c0 .275-.225.5-.5.5h-9a.501.501 0 0 1-.5-.5v-9a.5.5 0 0 1 .5-.5h9a.5.5 0 0 1 .5.5M15.5 4h-9A2.503 2.503 0 0 0 4 6.5v9C4 16.879 5.122 18 6.5 18h9c1.379 0 2.5-1.121 2.5-2.5v-9C18 5.122 16.879 4 15.5 4M13 2H2v11a1 1 0 0 1-2 0V2.5A2.5 2.5 0 0 1 2.5 0H13a1 1 0 0 1 0 2" fill="#6F6F6F"/></symbol><symbol id="earth" viewBox="0 0 18 18"><title>url</title><path d="M9 0C4.037 0 0 4.037 0 9s4.037 9 9 9 9-4.037 9-9-4.037-9-9-9m7 9c0 1.074-.25 2.089-.685 3H11c-1.016 0-1-1-1-1 0-.55-.45-1-1-1H7.167l-.081.017L7 10c-.55 0-1-.45-1-1s.45-1 1-1v-.006L9 8c.55 0 1-.45 1-1 0 0 0-1 1-1h1c.55 0 1-.45 1-1V3.264A6.993 6.993 0 0 1 16 9M2 9c0-.337.032-.666.078-.99C2.992 8.066 3 9 3 9c0 .55.45 1 1 1 0 0 1 .021 1 1v1c0 .55.45 1 1 1 1 0 1 1 1 1v1.705C4.113 14.842 2 12.164 2 9" fill="#5C5C5C"/></symbol><symbol id="ellipsis" viewBox="0 0 18 18"><title>more</title><path d="M2 7a2 2 0 1 0 .001 4.001A2 2 0 0 0 2 7m7 0a2 2 0 1 0 .001 4.001A2 2 0 0 0 9 7m7 0a2 2 0 1 0 .001 4.001A2 2 0 0 0 16 7" fill="#5C5C5C"/></symbol><symbol id="export-spreadsheet" viewBox="0 0 18 18"><title>export-spreadsheet</title><path d="M5 6H3.731c-.604 0-.947-.861-.58-1.337L5.42.26c.292-.378.868-.328 1.16.05l2.269 4.329C9.216 5.113 8.873 6 8.269 6H7v1a1 1 0 1 1-2 0V6zm10.414-1.586l-2.828-2.828A2.001 2.001 0 0 0 11.171 1H10a1 1 0 1 0 0 2v3c0 .55.45 1 1 1h3v1.5a.5.5 0 0 1-.5.5H4a1 1 0 0 0-1 1v5.5A2.5 2.5 0 0 0 5.5 18h8a2.5 2.5 0 0 0 2.5-2.5V5.829c0-.531-.211-1.04-.586-1.415zM5 12h4v-1H5v1zm5 0h4v-1h-4v1zm-5 2h4v-1H5v1zm5 0h4v-1h-4v1zm-5 2h4v-1H5v1zm5 0h4v-1h-4v1z" fill="#5C5C5C"/></symbol><symbol id="export" viewBox="0 0 18 18"><title>export</title><path d="M10 0h1.171c.531 0 1.04.211 1.415.586l2.828 2.828A2 2 0 0 1 16 4.828V15.5a2.5 2.5 0 0 1-2.5 2.5h-9A2.5 2.5 0 0 1 2 15.5V14a1 1 0 1 1 2 0v1.5a.5.5 0 0 0 .5.5h9a.5.5 0 0 0 .5-.5V6h-3c-.55 0-1-.45-1-1V2H4.5a.5.5 0 0 0-.5.5V6a1 1 0 1 1-2 0V2.5A2.5 2.5 0 0 1 4.5 0H10zM7 12.269V11h3a1 1 0 1 0 0-2H7V7.731c0-.604-.887-.947-1.362-.58L2.31 9.42c-.378.292-.428.868-.05 1.16l3.403 2.269c.476.367 1.337.024 1.337-.58z" fill="#5C5C5C"/></symbol><symbol id="filter" viewBox="0 0 18 18"><title>filter</title><path d="M13 8H5a1 1 0 1 0 0 2h8a1 1 0 1 0 0-2m2-4H3a1 1 0 1 0 0 2h12a1 1 0 1 0 0-2m-4 8H7a1 1 0 1 0 0 2h4a1 1 0 1 0 0-2" fill="#5C5C5C"/></symbol><symbol id="folder-close-plus" viewBox="0 0 18 18"><title>tree-expand-folder</title><path d="M6.67 2l.031.002.034.056L8.26 4h7.24a.5.5 0 0 1 .5.5v11a.5.5 0 0 1-.5.5h-13a.5.5 0 0 1-.5-.5v-13a.5.5 0 0 1 .5-.5h4.17m0-2H2a2 2 0 0 0-2 2v14a2 2 0 0 0 2 2h14a2 2 0 0 0 2-2V4a2 2 0 0 0-2-2H9.232L8.386.922C8.024.319 7.373 0 6.67 0M12 9h-2V7a1 1 0 0 0-2 0v2H6a1 1 0 0 0 0 2h2v2a1 1 0 0 0 2 0v-2h2a1 1 0 0 0 0-2" fill="#5C5C5C"/></symbol><symbol id="folder-closed-minus" viewBox="0 0 18 18"><title>tree-collapse-folder</title><path d="M6.67 2l.031.002.034.056L8.26 4h7.24a.5.5 0 0 1 .5.5v11a.5.5 0 0 1-.5.5h-13a.5.5 0 0 1-.5-.5v-13a.5.5 0 0 1 .5-.5h4.17m0-2H2a2 2 0 0 0-2 2v14a2 2 0 0 0 2 2h14a2 2 0 0 0 2-2V4a2 2 0 0 0-2-2H9.232L8.386.922C8.024.319 7.373 0 6.67 0M10 9h2a1 1 0 0 1 0 2H6a1 1 0 0 1 0-2h4" fill="#5C5C5C"/></symbol><symbol id="folder-open" viewBox="0 0 18 18"><title>open-folder</title><path d="M3.081 9.671L.638 15.427c-.514 1.285.515 2.571 1.929 2.571h10.284c1.157 0 2.186-.643 2.572-1.671l2.442-5.756C18.379 9.285 17.351 8 15.937 8H5.652c-1.157 0-2.185.643-2.571 1.671M2.499 1c-1.414 0-2.5.586-2.5 2v3h16V5c0-.969-1-2-2-2H7.213c-.514 0-.9-.257-1.157-.771 0 0-.557-1.229-2.057-1.229h-1.5zM2 6a1 1 0 1 0-2 0 1 1 0 0 0 2 0" fill="#5C5C5C"/></symbol><symbol id="folder-search" viewBox="0 0 18 18"><title>search-folder</title><path d="M16 2H9.232L8.386.922C8.024.319 7.373 0 6.67 0H2a2 2 0 0 0-2 2v14a2 2 0 0 0 2 2h14a2 2 0 0 0 2-2V4a2 2 0 0 0-2-2m-2.457 12.528l-.015.015a.99.99 0 0 1-1.4 0l-2.108-2.109A3.975 3.975 0 0 1 8 13c-2.206 0-4-1.794-4-4s1.794-4 4-4 4 1.794 4 4c0 .739-.216 1.424-.566 2.019l2.109 2.109a.99.99 0 0 1 0 1.4M8 7c-1.102 0-2 .897-2 2 0 1.102.898 2 2 2 1.102 0 2-.898 2-2 0-1.103-.898-2-2-2" fill="#5C5C5C"/></symbol><symbol id="folder" viewBox="0 0 18 18"><title>folder</title><path d="M0 8.099V16a2 2 0 0 0 2 2h14a2 2 0 0 0 2-2V8H0v.099zM16 3H9.232l-.846-1.078C8.024 1.319 7.373 1 6.67 1H2a2 2 0 0 0-2 2v3h18V5a2 2 0 0 0-2-2z" fill="#5C5C5C"/></symbol><symbol id="fullview" viewBox="0 0 18 18"><title>fullview</title><path d="M5 16H2v-3a1 1 0 1 0-2 0v4a1 1 0 0 0 1 1h4a1 1 0 1 0 0-2M17 0h-4a1 1 0 1 0 0 2h3v3a1 1 0 1 0 2 0V1a1 1 0 0 0-1-1M2 5V2h3a1 1 0 1 0 0-2H1a1 1 0 0 0-1 1v4a1 1 0 1 0 2 0m16 12v-4a1 1 0 1 0-2 0v3h-3a1 1 0 1 0 0 2h4a1 1 0 0 0 1-1" fill="#5C5C5C"/></symbol><symbol id="gear" viewBox="0 0 18 18"><title>settings</title><path d="M17.1 7.49l-1.39-.284a.365.365 0 0 1-.277-.254 6.545 6.545 0 0 0-.439-1.052.367.367 0 0 1 .015-.377l.784-1.184a1.125 1.125 0 0 0-.143-1.416l-.572-.573a1.125 1.125 0 0 0-1.416-.143l-1.185.784a.373.373 0 0 1-.378.015 6.372 6.372 0 0 0-1.051-.439.369.369 0 0 1-.254-.277L10.51.9A1.125 1.125 0 0 0 9.408 0h-.816c-.534 0-.995.376-1.102.9l-.284 1.39a.369.369 0 0 1-.254.277 6.372 6.372 0 0 0-1.051.439.373.373 0 0 1-.378-.015l-1.185-.784a1.125 1.125 0 0 0-1.416.143l-.572.573c-.378.378-.438.97-.143 1.416l.784 1.184a.367.367 0 0 1 .015.377 6.545 6.545 0 0 0-.439 1.052.365.365 0 0 1-.277.254L.9 7.49c-.524.107-.9.568-.9 1.103v.814c0 .535.376.996.9 1.103l1.39.284a.365.365 0 0 1 .277.254c.116.363.262.715.439 1.051a.369.369 0 0 1-.015.378l-.784 1.184a1.125 1.125 0 0 0 .143 1.416l.572.573c.378.378.971.438 1.416.143l1.185-.784a.371.371 0 0 1 .378-.015c.336.178.687.323 1.051.439.129.04.227.144.254.276L7.49 17.1c.107.524.568.9 1.102.9h.816c.534 0 .995-.376 1.102-.9l.284-1.391a.367.367 0 0 1 .254-.276 6.372 6.372 0 0 0 1.051-.439.371.371 0 0 1 .378.015l1.185.784a1.125 1.125 0 0 0 1.416-.143l.572-.573c.378-.378.438-.97.143-1.416l-.784-1.184a.369.369 0 0 1-.015-.378c.177-.336.323-.688.439-1.051a.365.365 0 0 1 .277-.254l1.39-.284c.524-.107.9-.568.9-1.103v-.814c0-.535-.376-.996-.9-1.103M9 12a3 3 0 1 1 0-6 3 3 0 0 1 0 6" fill="#5C5C5C"/></symbol><symbol id="grid-four" viewBox="0 0 18 18"><title>grid-layout</title><path d="M5.5 8h-3A2.5 2.5 0 0 1 0 5.5v-3A2.5 2.5 0 0 1 2.5 0h3A2.5 2.5 0 0 1 8 2.5v3A2.5 2.5 0 0 1 5.5 8m10 0h-3A2.5 2.5 0 0 1 10 5.5v-3A2.5 2.5 0 0 1 12.5 0h3A2.5 2.5 0 0 1 18 2.5v3A2.5 2.5 0 0 1 15.5 8m0 10h-3a2.5 2.5 0 0 1-2.5-2.5v-3a2.5 2.5 0 0 1 2.5-2.5h3a2.5 2.5 0 0 1 2.5 2.5v3a2.5 2.5 0 0 1-2.5 2.5m-10 0h-3A2.5 2.5 0 0 1 0 15.5v-3A2.5 2.5 0 0 1 2.5 10h3A2.5 2.5 0 0 1 8 12.5v3A2.5 2.5 0 0 1 5.5 18" fill="#5C5C5C"/></symbol><symbol id="grid-nine" viewBox="0 0 18 18"><title>grid</title><path d="M4 1H2a1 1 0 0 0-1 1v2a1 1 0 0 0 1 1h2a1 1 0 0 0 1-1V2a1 1 0 0 0-1-1m6 0H8a1 1 0 0 0-1 1v2a1 1 0 0 0 1 1h2a1 1 0 0 0 1-1V2a1 1 0 0 0-1-1m6 0h-2a1 1 0 0 0-1 1v2a1 1 0 0 0 1 1h2a1 1 0 0 0 1-1V2a1 1 0 0 0-1-1M4 7H2a1 1 0 0 0-1 1v2a1 1 0 0 0 1 1h2a1 1 0 0 0 1-1V8a1 1 0 0 0-1-1m6 0H8a1 1 0 0 0-1 1v2a1 1 0 0 0 1 1h2a1 1 0 0 0 1-1V8a1 1 0 0 0-1-1m6 0h-2a1 1 0 0 0-1 1v2a1 1 0 0 0 1 1h2a1 1 0 0 0 1-1V8a1 1 0 0 0-1-1M4 13H2a1 1 0 0 0-1 1v2a1 1 0 0 0 1 1h2a1 1 0 0 0 1-1v-2a1 1 0 0 0-1-1m6 0H8a1 1 0 0 0-1 1v2a1 1 0 0 0 1 1h2a1 1 0 0 0 1-1v-2a1 1 0 0 0-1-1m6 0h-2a1 1 0 0 0-1 1v2a1 1 0 0 0 1 1h2a1 1 0 0 0 1-1v-2a1 1 0 0 0-1-1" fill="#5C5C5C"/></symbol><symbol id="hamburger@1x" viewBox="0 0 18 18"><title>menu@1x</title><path d="M17.01 3H.99a.99.99 0 0 0-.99.99v.02c0 .547.444.99.99.99h16.02a.99.99 0 0 0 .99-.99v-.02a.99.99 0 0 0-.99-.99m0 10H.99a.99.99 0 0 0-.99.99v.02c0 .547.444.99.99.99h16.02a.99.99 0 0 0 .99-.99v-.02a.99.99 0 0 0-.99-.99m0-5H.99a.99.99 0 0 0-.99.99v.02c0 .547.444.99.99.99h16.02a.99.99 0 0 0 .99-.99v-.02a.99.99 0 0 0-.99-.99" fill="#5C5C5C"/></symbol><symbol id="heart-filled" viewBox="0 0 18 18"><title>heart-filled</title><path d="M16.894 2.828a5.001 5.001 0 0 0-7.402-.364 5 5 0 0 0-7.401.364C.428 4.842.727 7.841 2.573 9.687l6.212 6.212a.999.999 0 0 0 1.414 0l6.212-6.212c1.847-1.846 2.146-4.845.483-6.859" fill="#5C5C5C"/></symbol><symbol id="heart" viewBox="0 0 18 18"><title>heart-outlined</title><path d="M13.028 1c-1.28 0-2.559.488-3.535 1.464A4.987 4.987 0 0 0 5.957 1a4.99 4.99 0 0 0-3.866 1.828C.428 4.842.727 7.841 2.573 9.688l6.212 6.211a.997.997 0 0 0 1.415 0l6.212-6.211c1.846-1.847 2.145-4.846.482-6.86A4.988 4.988 0 0 0 13.028 1m0 2c.899 0 1.746.402 2.324 1.102.968 1.172.812 3.004-.354 4.171l-5.505 5.505-5.505-5.505c-1.167-1.167-1.323-2.999-.355-4.171A3.008 3.008 0 0 1 5.957 3c.801 0 1.555.312 2.121.879l1.415 1.414 1.414-1.414A2.978 2.978 0 0 1 13.028 3" fill="#5C5C5C"/></symbol><symbol id="house" viewBox="0 0 18 18"><title>home</title><path d="M16.999 9a.994.994 0 0 1-.599-.2L9 3.25 1.6 8.8A1 1 0 0 1 .4 7.2l8-6a.999.999 0 0 1 1.2 0l8 6a1 1 0 0 1-.601 1.8zM9 6l7 5v5a2 2 0 0 1-2 2h-3v-5H7v5H4.013A2.013 2.013 0 0 1 2 15.987V11l7-5z" fill="#5C5C5C"/></symbol><symbol id="import" viewBox="0 0 18 18"><title>import</title><path d="M6 7.731V9H3a1 1 0 1 0 0 2h3v1.269c0 .604.887.947 1.362.58l3.328-2.269c.378-.292.429-.868.051-1.16L7.337 7.151C6.861 6.784 6 7.127 6 7.731m9.414-4.317L12.586.586A2.001 2.001 0 0 0 11.171 0H4.5A2.5 2.5 0 0 0 2 2.5V6a1 1 0 1 0 2 0V2.5a.5.5 0 0 1 .5-.5H10v3c0 .55.45 1 1 1h3v9.5a.5.5 0 0 1-.5.5h-9a.5.5 0 0 1-.5-.5V14a1 1 0 1 0-2 0v1.5A2.5 2.5 0 0 0 4.5 18h9a2.5 2.5 0 0 0 2.5-2.5V4.828a2 2 0 0 0-.586-1.414" fill="#5C5C5C"/></symbol><symbol id="launch" viewBox="0 0 18 18"><title>launch</title><path d="M6.293 11.707a.999.999 0 0 0 1.414 0L14 5.414V9a1 1 0 1 0 2 0V3a1 1 0 0 0-1-1H9a1 1 0 1 0 0 2h3.586l-6.293 6.293a.999.999 0 0 0 0 1.414M15.01 12a.995.995 0 0 0-.991 1v.599c0 .389-.445.401-.496.401H4.477c-.051 0-.495-.012-.495-.401V4.5c0-.275.221-.5.495-.5h.533C5.557 4 6 3.553 6 3c0-.553-.443-1-.99-1h-.533C3.111 2 2 3.121 2 4.5v9.099C2 14.945 3.088 16 4.477 16h9.046C14.912 16 16 14.945 16 13.599V13c0-.553-.443-1-.99-1" fill="#5C5C5C"/></symbol><symbol id="link" viewBox="0 0 18 18"><title>link</title><path d="M7 14H4.5A4.505 4.505 0 0 1 0 9.5v-1C0 6.019 2.019 4 4.5 4H7a1 1 0 1 1 0 2H4.5A2.502 2.502 0 0 0 2 8.5v1C2 10.879 3.121 12 4.5 12H7a1 1 0 1 1 0 2m6.5 0H11a1 1 0 1 1 0-2h2.5c1.379 0 2.5-1.121 2.5-2.5v-1C16 7.121 14.879 6 13.5 6H11a1 1 0 1 1 0-2h2.5C15.981 4 18 6.019 18 8.5v1c0 2.481-2.019 4.5-4.5 4.5M12 10H6c-.55 0-1-.45-1-1s.45-1 1-1h6c.55 0 1 .45 1 1s-.45 1-1 1" fill="#5C5C5C"/></symbol><symbol id="list-bullets" viewBox="0 0 18 18"><title>bullet-list</title><path d="M17.99 3.99A.99.99 0 0 0 17 3H4.98a.99.99 0 0 0-.99.99v.02c0 .547.443.99.99.99H17a.99.99 0 0 0 .99-.99v-.02zM1.009 3H.99a.99.99 0 0 0-.99.99v.02c0 .547.443.99.99.99h.019A.99.99 0 0 0 2 4.01v-.02A.99.99 0 0 0 1.009 3zM17.99 8.99A.99.99 0 0 0 17 8H4.98a.99.99 0 0 0-.99.99v.02c0 .547.443.99.99.99H17a.99.99 0 0 0 .99-.99v-.02zM1.009 8H.99a.99.99 0 0 0-.99.99v.02c0 .547.443.99.99.99h.019A.99.99 0 0 0 2 9.01v-.02A.99.99 0 0 0 1.009 8zm16.981 5.99A.99.99 0 0 0 17 13H4.98a.99.99 0 0 0-.99.99v.02c0 .547.443.99.99.99H17a.99.99 0 0 0 .99-.99v-.02zM1.009 13H.99a.99.99 0 0 0-.99.99v.02c0 .547.443.99.99.99h.019A.99.99 0 0 0 2 14.01v-.02a.99.99 0 0 0-.991-.99z" fill="#5C5C5C"/></symbol><symbol id="list-numbers" viewBox="0 0 18 18"><title>number-list</title><path d="M18 3.99a.99.99 0 0 0-.99-.99H5.99a.99.99 0 0 0-.99.99v.02c0 .547.443.99.99.99h11.02a.99.99 0 0 0 .99-.99v-.02zm0 5a.99.99 0 0 0-.99-.99H5.99a.99.99 0 0 0-.99.99v.02c0 .547.443.99.99.99h11.02a.99.99 0 0 0 .99-.99v-.02zm0 5a.99.99 0 0 0-.99-.99H5.99a.99.99 0 0 0-.99.99v.02c0 .547.443.99.99.99h11.02a.99.99 0 0 0 .99-.99v-.02zM0 13h2v.5H1v1h1v.5H0v1h3v-4H0v1zm1-7h1V2H0v1h1v3zM0 8h1.8L0 10.1v.9h3v-1H1.2L3 7.9V7H0v1z" fill="#5C5C5C"/></symbol><symbol id="list-search" viewBox="0 0 18 18"><title>search-list</title><path d="M9.815 11.726a5.316 5.316 0 0 0 .949-3.04 5.388 5.388 0 0 0-5.382-5.383A5.388 5.388 0 0 0 0 8.686a5.387 5.387 0 0 0 5.382 5.381 5.32 5.32 0 0 0 3.042-.95l3.595 3.597a.979.979 0 0 0 .695.286.97.97 0 0 0 .695-.287.986.986 0 0 0 0-1.391l-3.594-3.596zm-4.433.375c-1.883 0-3.415-1.532-3.415-3.415S3.499 5.27 5.382 5.27c1.884 0 3.416 1.533 3.416 3.416s-1.532 3.415-3.416 3.415zM17 4h-6c-.55 0-1-.45-1-1s.45-1 1-1h6c.55 0 1 .45 1 1s-.45 1-1 1zm0 4h-4c-.55 0-1-.45-1-1s.45-1 1-1h4c.55 0 1 .45 1 1s-.45 1-1 1zm0 4h-4c-.55 0-1-.45-1-1s.45-1 1-1h4c.55 0 1 .45 1 1s-.45 1-1 1z" fill="#5C5C5C"/></symbol><symbol id="list" viewBox="0 0 18 18"><title>list</title><path d="M17.99 3.99A.99.99 0 0 0 17 3H4.98a.99.99 0 0 0-.99.99v.02c0 .547.443.99.99.99H17a.99.99 0 0 0 .99-.99v-.02zM1.01 3H.99a.99.99 0 0 0-.99.99v.02c0 .547.443.99.99.99h.02A.99.99 0 0 0 2 4.01v-.02A.99.99 0 0 0 1.01 3zm16.98 5.99A.99.99 0 0 0 17 8H4.98a.99.99 0 0 0-.99.99v.02c0 .547.443.99.99.99H17a.99.99 0 0 0 .99-.99v-.02zM1.01 8H.99a.99.99 0 0 0-.99.99v.02c0 .547.443.99.99.99h.02A.99.99 0 0 0 2 9.01v-.02A.99.99 0 0 0 1.01 8zm16.98 5.99A.99.99 0 0 0 17 13H4.98a.99.99 0 0 0-.99.99v.02c0 .547.443.99.99.99H17a.99.99 0 0 0 .99-.99v-.02zM1.01 13H.99a.99.99 0 0 0-.99.99v.02c0 .547.443.99.99.99h.02a.99.99 0 0 0 .99-.99v-.02a.99.99 0 0 0-.99-.99z" fill="#5C5C5C"/></symbol><symbol id="loading" viewBox="0 0 18 18"><title>load</title><path d="M2.053 8.002H.731c-.605 0-.947.526-.58 1l2.268 4.436c.292.378.852.335 1.161-.15l2.268-4.286c.367-.474.025-1-.579-1H4.082A5.007 5.007 0 0 1 8.982 4a4.887 4.887 0 0 1 2.711.818l1.435-1.435A6.936 6.936 0 0 0 8.982 2c-3.52 0-6.443 2.614-6.929 6.002m13.83 1.994h1.358c.604 0 .947-.526.58-1.001L15.552 4.56c-.292-.378-.85-.336-1.16.149l-2.268 4.286c-.368.476-.025 1.001.58 1.001h1.15a5.011 5.011 0 0 1-4.899 3.998 4.899 4.899 0 0 1-2.712-.818l-1.434 1.435a6.923 6.923 0 0 0 4.146 1.381c3.519.001 6.44-2.609 6.928-5.996" fill="#5C5C5C"/></symbol><symbol id="locked-filled" viewBox="0 0 18 18"><title>locked</title><path d="M13 8V3.8C13 1.74 11.168 0 9 0S5 1.74 5 3.8V8c-1.1 0-2 .9-2 2v6c0 1.1.9 2 2 2h8c1.1 0 2-.9 2-2v-6c0-1.1-.9-2-2-2zM7 3.8C7 2.857 7.953 2 9 2c1.047 0 2 .857 2 1.8V8H7V3.8z" fill="#5C5C5C"/></symbol><symbol id="mail-filled" viewBox="0 0 18 18"><title>mail</title><path d="M9.296 10.365L18 3.982v-.179C18 2.807 17.193 2 16.197 2H1.982A1.982 1.982 0 0 0 0 3.982l8.705 6.383a.5.5 0 0 0 .591 0zm.277 2.257a.995.995 0 0 1-1.146 0L0 6.423V14a2 2 0 0 0 2 2h14a2 2 0 0 0 2-2V6.423l-8.427 6.199z" fill="#5C5C5C"/></symbol><symbol id="map-pin" viewBox="0 0 18 18"><title>map-pin</title><path d="M9 0a7 7 0 0 0-7 7c0 4.028 4.543 9.061 6.31 10.728a.99.99 0 0 0 1.367-.003C11.434 16.057 16 11.026 16 7a7 7 0 0 0-7-7m0 10a3 3 0 1 1 0-6 3 3 0 0 1 0 6" fill="#5C5C5C"/></symbol><symbol id="math-minus-small@1x" viewBox="0 0 18 18"><title>secondary-menu-collapse-minus@1x</title><path d="M5 11h8a1 1 0 1 0 0-2H5a1 1 0 1 0 0 2" fill="#5C5C5C"/></symbol><symbol id="math-minus" viewBox="0 0 18 18"><title>minus</title><path d="M16 11a1 1 0 1 0 0-2H2a1 1 0 1 0 0 2h14z" fill="#5C5C5C"/></symbol><symbol id="math-plus-small@1x" viewBox="0 0 18 18"><title>secondary-menu-expand-plus@1x</title><path d="M13 8h-3V5a1 1 0 0 0-2 0v3H5a1 1 0 0 0 0 2h3v3a1 1 0 0 0 2 0v-3h3a1 1 0 0 0 0-2" fill="#5C5C5C"/></symbol><symbol id="math-plus" viewBox="0 0 18 18"><title>add</title><path d="M16 8h-6V2a1 1 0 0 0-2 0v6H2a1 1 0 0 0 0 2h6v6a1 1 0 0 0 2 0v-6h6a1 1 0 0 0 0-2" fill="#5C5C5C"/></symbol><symbol id="maximize" viewBox="0 0 18 18"><title>maximize</title><path d="M7.707 10.293a.999.999 0 0 0-1.414 0L2 14.586V11a1 1 0 1 0-2 0v6a1 1 0 0 0 1 1h6a1 1 0 1 0 0-2H3.414l4.293-4.293a.999.999 0 0 0 0-1.414M17 0h-6a1 1 0 1 0 0 2h3.586l-4.293 4.293a.999.999 0 1 0 1.414 1.414L16 3.414V7a1 1 0 1 0 2 0V1a1 1 0 0 0-1-1" fill="#5C5C5C"/></symbol><symbol id="minimize" viewBox="0 0 18 18"><title>minimize</title><path d="M.293 17.707a.999.999 0 0 0 1.414 0L6 13.414V17a1 1 0 1 0 2 0v-6a1 1 0 0 0-1-1H1a1 1 0 1 0 0 2h3.586L.293 16.293a.999.999 0 0 0 0 1.414M11 8h6a1 1 0 1 0 0-2h-3.586l4.293-4.293A.999.999 0 1 0 16.293.293L12 4.586V1a1 1 0 1 0-2 0v6a1 1 0 0 0 1 1" fill="#5C5C5C"/></symbol><symbol id="notes" viewBox="0 0 18 18"><title>notes</title><g fill="#5C5C5C"><path d="M14.5 2h-11A2.503 2.503 0 0 0 1 4.5v11C1 16.878 2.122 18 3.5 18h11c1.378 0 2.5-1.122 2.5-2.5v-11C17 3.122 15.878 2 14.5 2m0 2c.275 0 .5.225.5.5v11c0 .275-.225.5-.5.5h-11a.501.501 0 0 1-.5-.5v-11c0-.275.225-.5.5-.5h11"/><path d="M13 9.01a.99.99 0 0 1-.99.99H6a.99.99 0 0 1-.99-.99v-.02A.99.99 0 0 1 6 8h6.01a.99.99 0 0 1 .99.99v.02zm0 4a.99.99 0 0 1-.99.99H5.99a.99.99 0 0 1-.99-.99v-.02a.99.99 0 0 1 .99-.99h6.02a.99.99 0 0 1 .99.99v.02zm0-8a.99.99 0 0 1-.99.99h-.02a.99.99 0 0 1-.99-.99V.99a.99.99 0 0 1 .99-.99h.02a.99.99 0 0 1 .99.99v4.02zm-6 0a.99.99 0 0 1-.99.99h-.02A.99.99 0 0 1 5 5.01V.99A.99.99 0 0 1 5.99 0h.02A.99.99 0 0 1 7 .99v4.02z"/></g></symbol><symbol id="notification" viewBox="0 0 18 18"><title>notification</title><path d="M17.496 14.152l.017-.006S16.01 12.959 16.01 10L16 9.679V9c0-3.509-2.621-6.429-6-6.919V1c0-.55-.45-1-1-1S8 .45 8 1v1.081C4.621 2.571 2 5.491 2 9v.514a3.01 3.01 0 0 0-.029.486c0 2.959-1.502 4.146-1.502 4.146l.029.01A.989.989 0 0 0 0 15c0 .55.45 1 1 1h5.184A2.99 2.99 0 0 0 9 18a2.99 2.99 0 0 0 2.816-2H17c.55 0 1-.45 1-1a.988.988 0 0 0-.504-.848" fill="#5C5C5C"/></symbol><symbol id="paperclip" viewBox="0 0 18 18"><title>attach</title><path d="M9.356 0C6.403 0 4 2.46 4 5.485v8.545C4 16.256 5.7 18 7.932 18 10.137 18 12 16.182 12 14.03V6.417C12 5.084 10.841 4 9.387 4 8.026 4 7 5.039 7 6.417V11a1 1 0 1 0 2 0V6.417C9 6.14 9.13 6 9.416 6c.275 0 .584.178.584.417v7.613C10 15.098 9.053 16 7.871 16 6.805 16 6 15.153 6 14.03V5.485C6 3.531 7.475 2 9.446 2 11.373 2 13 3.596 13 5.485V14a1 1 0 1 0 2 0V5.485C15 2.512 12.457 0 9.356 0" fill="#5C5C5C"/></symbol><symbol id="pencil" viewBox="0 0 18 18"><title>edit</title><path d="M17 16h-7l-2.22 1.997H17c.55 0 1-.45 1-1S17.55 16 17 16zM14.09 0c-.64 0-1.28.242-1.77.727L.65 12.407c-.37.37-.65 1.05-.65 1.57v3.02c0 .55.45 1 1 1h3.03c.53 0 1.19-.28 1.56-.65l10.86-10.85.82-.82c.97-.98.97-2.56 0-3.54L15.86.727A2.508 2.508 0 0 0 14.09 0zM2 15.997v-1.98l.06-.2 9.21-9.21 2.25 1.98-9.31 9.32-.18.09H2z" fill="#5C5C5C"/></symbol><symbol id="print" viewBox="0 0 18 18"><title>print</title><path d="M14 1a1 1 0 0 0-1-1H5a1 1 0 0 0-1 1v3h10V1zm2 5H2C.897 6 0 6.897 0 8v5c0 1.103.897 2 2 2h1v-3.5A1.5 1.5 0 0 1 4.5 10h9a1.5 1.5 0 0 1 1.5 1.5V15h1c1.102 0 2-.897 2-2V8c0-1.103-.898-2-2-2zm-4 6H6a1 1 0 0 0-1 1v4a1 1 0 0 0 1 1h6a1 1 0 0 0 1-1v-4a1 1 0 0 0-1-1z" fill="#5C5C5C"/></symbol><symbol id="redo" viewBox="0 0 18 18"><title>redo</title><path d="M17.001 15H7c-2.757 0-5-2.243-5-5s2.243-5 5-5h5v1.269c0 .604.554.947 1.055.58l4.521-2.269c.511-.31.556-.868.157-1.16l-4.678-2.269C12.554.784 12 1.127 12 1.731V3H7c-3.86 0-7 3.141-7 7s3.14 7 7 7h10.001a.999.999 0 1 0 0-2" fill="#5C5C5C"/></symbol><symbol id="refresh" viewBox="0 0 18 18"><title>refresh</title><path d="M16.099 6.507l-2.806-4.116c-.241-.551-.866-.501-1.156.029l-.667 1.223A6.996 6.996 0 0 0 8 2.717v-.004c-.652 0-1.28.096-1.878.264l-.134.034-.419.146-.242.089-.302.14-.332.16-.195.115-.401.243-.091.068a6.975 6.975 0 0 0-.956.792c-.3.3-.561.623-.795.96l-.064.087-.246.404-.113.191-.162.337-.137.296-.093.252-.142.408-.038.15a6.482 6.482 0 0 0-.128.525l-.002.012c-.083.43-.13.873-.13 1.327 0 .448.046.885.127 1.31l.005.031.124.51.043.166.136.39.099.27.126.272.175.363.093.157.267.438.024.034c.242.355.516.695.831 1.009.313.314.651.586 1.004.827l.038.028.437.265.16.095.36.174.274.127.268.097.393.138.161.041.515.126.023.003c.427.082.866.129 1.317.129a6.96 6.96 0 0 0 1.299-.126l.043-.007.492-.119.185-.048.366-.128.297-.108.24-.111.394-.191.116-.068a7.012 7.012 0 0 0 1.518-1.144l-.003-.003A6.979 6.979 0 0 0 15 9.713l-2.001-.001c.001 1.567-.738 2.95-1.87 3.868l-.347.283c-.155.105-.327.182-.494.269l-.373.196c-.161.067-.335.107-.505.156l-.435.129a5.03 5.03 0 0 1-.751.077l-.464-.002a5.098 5.098 0 0 1-.736-.075l-.438-.13c-.169-.049-.341-.088-.502-.155l-.389-.205c-.16-.084-.326-.158-.476-.259-.154-.103-.294-.235-.438-.357a5.118 5.118 0 0 1-.549-.543c-.133-.155-.275-.307-.386-.474-.089-.132-.153-.279-.228-.419-.08-.15-.172-.293-.236-.449l-.127-.407c-.055-.178-.122-.353-.158-.535l-.043-.432a5.036 5.036 0 0 1 0-1.07l.043-.432c.036-.182.103-.357.158-.535l.127-.407c.064-.155.156-.3.236-.449l.228-.419c.115-.173.26-.33.4-.49.151-.174.313-.335.486-.487.161-.139.317-.284.49-.399.131-.089.278-.153.418-.228.15-.08.295-.173.45-.236l.405-.126c.179-.057.355-.123.538-.159l.427-.043a4.972 4.972 0 0 1 3.045.64l-.542.994c-.29.532.007 1.084.6.989l4.849.062c.574-.039.879-.508.687-.946" fill="#5C5C5C"/></symbol><symbol id="reset" viewBox="0 0 18 18"><title>reset</title><path d="M3.098 8H1.762c-.604 0-.856.583-.731 1l2.42 4.435c.292.379.789.378 1.16-.149L7.031 9c.125-.52-.126-1-.731-1H5.118c.439-2.436 2.475-4 4.913-4 2.757 0 5 2.243 5 5s-2 5-5 5v2c4 0 7-3.14 7-7s-3.141-7-7-7c-3.53 0-6.459 2.51-6.933 6" fill="#5C5C5C"/></symbol><symbol id="responsive-app-switcher" viewBox="0 0 18 18"><title>responsive-app-switcher</title><path d="M15.01 10a.995.995 0 0 0-.991 1v3.599c0 .389-.445.401-.496.401H4.477c-.051 0-.495-.012-.495-.401V5.5c0-.275.221-.5.495-.5H8.01C8.557 5 9 4.553 9 4c0-.553-.443-1-.99-1H4.477C3.111 3 2 4.121 2 5.5v9.099C2 15.945 3.088 17 4.477 17h9.046C14.912 17 16 15.945 16 14.599V11c0-.553-.443-1-.99-1M17 5a3 3 0 1 0-6 0 3 3 0 0 0 6 0" fill="#5C5D5D"/></symbol><symbol id="save" viewBox="0 0 18 18"><title>save</title><path d="M13 9.99a.99.99 0 0 0-.99-.99H5.99a.99.99 0 0 0-.99.99v.02c0 .547.443.99.99.99h6.02a.99.99 0 0 0 .99-.99v-.02zm0 3a.99.99 0 0 0-.99-.99H5.99a.99.99 0 0 0-.99.99v.02c0 .547.443.99.99.99h6.02a.99.99 0 0 0 .99-.99v-.02zM5.5 3h5a.5.5 0 0 0 .5-.5v-2a.5.5 0 0 0-.5-.5h-5a.5.5 0 0 0-.5.5v2a.5.5 0 0 0 .5.5zm11.942 1.322L14 .586a1.977 1.977 0 0 0-1.047-.55c.028.15.047.305.047.464v2C13 3.879 11.878 5 10.5 5H5.599C4.22 5 3 3.879 3 2.5v-2c0-.171.116-.339.149-.5H2.5A2.503 2.503 0 0 0 0 2.5v13C0 16.879 1.122 18 2.5 18h13c1.378 0 2.5-1.121 2.5-2.5V5.707a1.96 1.96 0 0 0-.558-1.385zM16 15.5c0 .275-.225.5-.5.5h-13a.501.501 0 0 1-.5-.5v-8a.5.5 0 0 1 .5-.5h13a.5.5 0 0 1 .5.5v8z" fill="#5C5C5C"/></symbol><symbol id="scene" viewBox="0 0 18 18"><title>insert-image</title><path d="M15.523 0H2.477C1.088 0 0 1.055 0 2.401v13.198C0 16.945 1.088 18 2.477 18h13.046C16.912 18 18 16.945 18 15.599V2.401C18 1.055 16.912 0 15.523 0M2.477 2h13.046c.051 0 .496.012.496.401V14.02l-3.125-2.869L10 13.062 6.042 9.466 1.982 12V2.5c0-.275.221-.5.495-.5M14 6a2 2 0 1 0-3.999-.001A2 2 0 0 0 14 6" fill="#5C5C5C"/></symbol><symbol id="scissors" viewBox="0 0 18 18"><title>cut</title><path d="M11.414 9l6.311-6.311a.979.979 0 0 0-.015-1.385l-.014-.014a.979.979 0 0 0-1.385-.015L10 7.586 7.753 5.339A3.97 3.97 0 0 0 8 4c0-2.206-1.794-4-4-4S0 1.794 0 4s1.794 4 4 4c.997 0 1.899-.38 2.601-.985L8.586 9l-1.985 1.986A3.967 3.967 0 0 0 4 10c-2.206 0-4 1.794-4 4s1.794 4 4 4 4-1.794 4-4a3.97 3.97 0 0 0-.247-1.339L10 10.414l6.311 6.311a.979.979 0 0 0 1.385-.015l.014-.014a.979.979 0 0 0 .015-1.385L11.414 9zM4 6c-1.102 0-2-.897-2-2 0-1.102.898-2 2-2 1.102 0 2 .898 2 2 0 1.103-.898 2-2 2zm0 10c-1.102 0-2-.898-2-2 0-1.102.898-2 2-2 1.102 0 2 .898 2 2 0 1.102-.898 2-2 2z" fill="#5C5C5C"/></symbol><symbol id="search-arrow-down" viewBox="0 0 28 18"><title>search-category-filter</title><path d="M17.707 16.293l-5.108-5.109A6.954 6.954 0 0 0 14 7c0-3.86-3.141-7-7-7S0 3.14 0 7s3.141 7 7 7a6.958 6.958 0 0 0 4.185-1.402l5.108 5.109a.997.997 0 0 0 1.414 0 .999.999 0 0 0 0-1.414M7 12c-2.757 0-5-2.243-5-5s2.243-5 5-5 5 2.243 5 5-2.243 5-5 5m11-6h10l-5 5-5-5z" fill="#5C5C5C"/></symbol><symbol id="search" viewBox="0 0 18 18"><title>search</title><path d="M17.707 16.293l-5.108-5.109A6.954 6.954 0 0 0 14 7c0-3.86-3.141-7-7-7S0 3.14 0 7s3.141 7 7 7a6.958 6.958 0 0 0 4.185-1.402l5.108 5.109a.997.997 0 0 0 1.414 0 .999.999 0 0 0 0-1.414M7 12c-2.757 0-5-2.243-5-5s2.243-5 5-5 5 2.243 5 5-2.243 5-5 5" fill="#5C5C5C"/></symbol><symbol id="send" viewBox="0 0 18 18"><title>send</title><path d="M17 9a1 1 0 0 0-1 1v5.599c0 .389-.449.401-.5.401h-13c-.051 0-.5-.012-.5-.401V6.5a.5.5 0 0 1 .5-.5H4a1 1 0 1 0 0-2H2.5A2.503 2.503 0 0 0 0 6.5v9.099C0 16.945 1.098 18 2.5 18h13c1.402 0 2.5-1.055 2.5-2.401V10a1 1 0 0 0-1-1M6.586 11.099a.56.56 0 0 0 .556-.415c.551-2.343 2.131-3.536 4.858-3.9v1.393c0 .68.698 1.066 1.206.652l4.5-3.677c.404-.329.396-.975-.009-1.304L13.21.17C12.703-.243 12 .143 12 .823v1.58c-3.472.726-5.773 3.441-5.99 8.177-.012.281.254.519.576.519" fill="#5C5C5C"/></symbol><symbol id="sort-down" viewBox="0 0 18 18"><title>sort-down</title><path d="M17.997 2.99a.99.99 0 0 0-.99-.99h-9.02a.99.99 0 0 0-.99.99v.02c0 .547.443.99.99.99h9.02a.99.99 0 0 0 .99-.99v-.02zm0 5a.99.99 0 0 0-.99-.99h-9.02a.99.99 0 0 0-.99.99v.02c0 .547.443.99.99.99h9.02a.99.99 0 0 0 .99-.99v-.02zm-.99 4.01h-6.01c-.547 0-1 .443-1 .99v.02c0 .547.47.99.99.99h6.02a.99.99 0 0 0 .99-.99v-.02a.99.99 0 0 0-.99-.99zm-9.739 0H4.997V1a1 1 0 1 0-2 0v11H.731c-.605 0-.947.887-.58 1.361l3.268 4.329c.293.378.868.428 1.16.05l3.269-4.403c.367-.476.025-1.337-.58-1.337z" fill="#5C5C5C"/></symbol><symbol id="sort-up" viewBox="0 0 18 18"><title>sort-up</title><path d="M17.997 15.01a.99.99 0 0 1-.99.99h-9.02a.99.99 0 0 1-.99-.99v-.02a.99.99 0 0 1 .99-.99h9.02a.99.99 0 0 1 .99.99v.02zm0-5a.99.99 0 0 1-.99.99h-9.02a.99.99 0 0 1-.99-.99v-.02a.99.99 0 0 1 .99-.99h9.02a.99.99 0 0 1 .99.99v.02zM17.007 6h-6.01c-.547 0-1-.443-1-.99v-.02c0-.547.47-.99.99-.99h6.02a.99.99 0 0 1 .99.99v.02a.99.99 0 0 1-.99.99zM7.269 6H4.997v11a1 1 0 1 1-2 0V6H.732c-.606 0-.948-.887-.58-1.361L3.419.31c.293-.378.868-.428 1.16-.05l3.27 4.403C8.216 5.139 7.872 6 7.269 6z" fill="#5C5C5C"/></symbol><symbol id="speaker-filled" viewBox="0 0 18 18"><title>audio</title><path d="M14.459 1.161l-6.237 4.01H5.5a2.507 2.507 0 0 0-2.5 2.5v3c0 1.375 1.125 2.5 2.5 2.5h2.722l6.237 4.009A1 1 0 0 0 16 16.339V2.002a1 1 0 0 0-1.541-.841" fill="#5C5C5C"/></symbol><symbol id="speaker-muted" viewBox="0 0 18 18"><title>no-audio</title><path d="M13 3.756V2.002a1 1 0 0 0-1.541-.841L5.222 5.17H2.5A2.507 2.507 0 0 0 0 7.67v3c0 1.375 1.125 2.5 2.5 2.5h1.086L13 3.756zm3.854.268a1.003 1.003 0 0 0-1.414 0L2.854 16.609c-.389.39-.389 1.026 0 1.415s1.025.389 1.414 0l3.328-3.328 3.863 2.483A1 1 0 0 0 13 16.338V9.292l3.854-3.854a1.003 1.003 0 0 0 0-1.414" fill="#5C5C5C"/></symbol><symbol id="speech-bubble-filled" viewBox="0 0 18 18"><title>mingle-share</title><path d="M14.5 1h-11A2.507 2.507 0 0 0 1 3.5v7C1 11.875 2.125 13 3.5 13H13l4 4V3.5C17 2.125 15.875 1 14.5 1M11 10H5c-.55 0-1-.45-1-1s.45-1 1-1h6c.55 0 1 .45 1 1s-.45 1-1 1m2-4H5c-.55 0-1-.45-1-1s.45-1 1-1h8c.55 0 1 .45 1 1s-.45 1-1 1" fill="#5C5C5C"/></symbol><symbol id="star-filled" viewBox="0 0 18 18"><title>star</title><path d="M9.818.59l1.755 5.399h5.566c.842 0 1.181 1.074.488 1.557l-4.465 3.102 1.729 5.23c.263.799-.643 1.466-1.319.973l-4.57-3.336-4.572 3.292c-.678.488-1.579-.186-1.314-.982l1.727-5.178L.371 7.545C-.321 7.061.019 5.989.86 5.989h5.572L8.186.601C8.445-.193 9.559-.204 9.818.59" fill="#5C5C5C"/></symbol><symbol id="star-half-filled" viewBox="0 0 18 18"><title>star-half-filled</title><path d="M17.139 5.989h-5.565L9.819.59A.836.836 0 0 0 9.01 0L9 .002V0l-.14.022-.11.017-.117.056-.118.058-.071.068a.851.851 0 0 0-.257.381L6.432 5.989H.861a.85.85 0 0 0-.529.175c-.418.325-.48 1.019.039 1.382l4.472 3.101-1.726 5.177a.88.88 0 0 0-.043.267l.004.07.031.181.02.067.098.185.014.023.168.168.047.031.157.086.068.025.177.035.058.007.018.003.142-.023.101-.016.19-.094.064-.032 4.043-2.911.528-.38 4.571 3.336c.16.116.333.167.501.167.539 0 1.018-.533.817-1.142l-1.728-5.23 4.464-3.101c.694-.483.355-1.557-.488-1.557zm-4.832 3.427l-.92.639 1.456 4.407-2.956-2.158-.879-.641-.008.006V2.95l.004-.013 1.48 4.552h4.595l-2.772 1.927z" fill="#5C5C5C"/></symbol><symbol id="star" viewBox="0 0 18 18"><title>star-outlined</title><path d="M9.005 2.937l1.479 4.552h4.596l-2.772 1.927-.921.639 1.457 4.407-2.957-2.158-.878-.641-3.846 2.769 1.459-4.376-.923-.64-2.777-1.927h4.599l1.484-4.552M9.011 0a.853.853 0 0 0-.824.602L6.433 5.989H.861c-.842 0-1.182 1.073-.489 1.557l4.472 3.102-1.727 5.176a.87.87 0 0 0 .817 1.148.85.85 0 0 0 .497-.165l4.572-3.291 4.57 3.336c.16.116.333.168.501.168.539 0 1.019-.534.817-1.143l-1.728-5.229 4.465-3.102c.693-.482.354-1.557-.488-1.557h-5.566L9.819.59A.835.835 0 0 0 9.011 0" fill="#5C5C5C"/></symbol><symbol id="step-backwards" viewBox="0 0 18 18"><title>first-page</title><path d="M15 3.731c0-.604-.886-.947-1.361-.58L7.311 8.42c-.378.292-.428.868-.05 1.16l6.403 5.269c.475.367 1.336.024 1.336-.58V3.731zM5 3.99A.99.99 0 0 0 4.01 3h-.02a.99.99 0 0 0-.99.99v10.02c0 .547.443.99.99.99h.02a.99.99 0 0 0 .99-.99V3.99z" fill="#5C5C5C"/></symbol><symbol id="step-forward" viewBox="0 0 18 18"><title>last-page</title><path d="M3 3.731c0-.604.886-.947 1.361-.58l6.328 5.269c.378.292.428.868.05 1.16l-6.403 5.269c-.476.367-1.336.024-1.336-.58V3.731zM15 14.01a.99.99 0 0 1-.99.99h-.02a.99.99 0 0 1-.99-.99V3.99a.99.99 0 0 1 .99-.99h.02a.99.99 0 0 1 .99.99v10.02z" fill="#5C5C5C"/></symbol><symbol id="tack-filled" viewBox="0 0 18 18"><title>tack</title><path d="M17.707 7.293l-7-7a.999.999 0 1 0-1.414 1.414l.206.207c-1.022 2.36-3.307 4.562-5.677 5.494l-.115-.115a.999.999 0 1 0-1.414 1.414l2.687 2.688-4.649 4.65a1.13 1.13 0 1 0 1.597 1.597l4.65-4.651 2.715 2.716a.997.997 0 0 0 1.414 0 .999.999 0 0 0 0-1.414l-.197-.197c.97-2.328 3.238-4.604 5.565-5.607l.218.218a.997.997 0 0 0 1.414 0 .999.999 0 0 0 0-1.414" fill="#5C5C5C"/></symbol><symbol id="trash" viewBox="0 0 18 18"><title>trash</title><path d="M3.722 16.328A2 2 0 0 0 5.694 18h6.612a2 2 0 0 0 1.972-1.672L15 6H3l.722 10.328zM10 9.5a.5.5 0 0 1 .5-.5h1a.5.5 0 0 1 .5.5v5a.5.5 0 0 1-.5.5h-1a.5.5 0 0 1-.5-.5v-5zm-4 0a.5.5 0 0 1 .5-.5h1a.5.5 0 0 1 .5.5v5a.5.5 0 0 1-.5.5h-1a.5.5 0 0 1-.5-.5v-5zM16 2h-4a2 2 0 0 0-2-2H8a2 2 0 0 0-2 2H2a1 1 0 1 0 0 2h14a1 1 0 1 0 0-2z" fill="#5C5C5C"/></symbol><symbol id="triangle-filled-down" viewBox="0 0 18 18"><title>dropdown</title><path d="M4 6l5 6 5-6H4z" fill="#5C5C5C"/></symbol><symbol id="triangle-filled-left" viewBox="0 0 18 18"><title>previous-page</title><path d="M13 14.269c0 .604-.887.947-1.361.58L5.31 9.58c-.378-.292-.428-.868-.05-1.16l6.403-5.269c.476-.367 1.337-.024 1.337.58v10.538" fill="#5C5C5C"/></symbol><symbol id="triangle-filled-right" viewBox="0 0 18 18"><title>next-page</title><path d="M5 14.269c0 .604.887.947 1.361.58L12.69 9.58c.378-.292.428-.868.05-1.16L6.337 3.151C5.861 2.784 5 3.127 5 3.731v10.538" fill="#5C5C5C"/></symbol><symbol id="undo" viewBox="0 0 18 18"><title>undo</title><path d="M.999 15H11c2.757 0 5-2.243 5-5s-2.243-5-5-5H6v1.269c0 .604-.554.947-1.055.58L.424 4.58c-.511-.31-.556-.868-.157-1.16l4.678-2.269C5.446.784 6 1.127 6 1.731V3h5c3.86 0 7 3.141 7 7s-3.14 7-7 7H.999a.999.999 0 1 1 0-2" fill="#5C5C5C"/></symbol><symbol id="unlocked" viewBox="0 0 18 18"><title>unlocked</title><path d="M13 8V3.8C13 1.74 11.169 0 9 0S5 1.74 5 3.8V5a1 1 0 1 0 2 0V3.8C7 2.857 7.953 2 9 2c1.047 0 2 .857 2 1.8V8H5c-1.1 0-2 .9-2 2v6c0 1.1.9 2 2 2h8c1.1 0 2-.9 2-2v-6c0-1.1-.9-2-2-2m-7.5 2h7a.5.5 0 0 1 .5.5v5a.5.5 0 0 1-.5.5h-7a.5.5 0 0 1-.5-.5v-5a.5.5 0 0 1 .5-.5" fill="#5C5C5C"/></symbol><symbol id="upload" viewBox="0 0 18 18"><title>upload</title><path d="M1 5a1 1 0 0 1-1-1V2.401C0 1.055 1.098 0 2.5 0h13C16.902 0 18 1.055 18 2.401V4a1 1 0 1 1-2 0V2.401c0-.389-.449-.401-.5-.401h-13c-.051 0-.5.012-.5.401V4a1 1 0 0 1-1 1m8.707-.77l.062.063h.001l4.999 5a.999.999 0 0 1 0 1.414 1.037 1.037 0 0 1-1.445 0L10 7.414V17a1 1 0 1 1-2 0V7.289l-3.324 3.355a.98.98 0 0 1-1.399 0 1.005 1.005 0 0 1 .012-1.414l5.002-5a1.003 1.003 0 0 1 1.416 0" fill="#5C5C5C"/></symbol><symbol id="user-circle" viewBox="0 0 18 18"><title>user-profile</title><path d="M9 0C4.029 0 0 4.029 0 9s4.029 9 9 9 9-4.029 9-9-4.029-9-9-9m2.501 7.052a2.5 2.5 0 1 1-5 0 2.5 2.5 0 0 1 5 0m-2.5 3.371c2.294 0 4.208 1.554 4.796 3.661a6.961 6.961 0 0 1-9.592.002c.588-2.109 2.501-3.663 4.796-3.663" fill="#5C5C5C"/></symbol><symbol id="user" viewBox="0 0 18 18"><title>user</title><path d="M16 16.221a7 7 0 1 0-14 0s0 1.728 2 1.728h10c2 0 2-1.728 2-1.728M9 8a3.5 3.5 0 1 1 0-7 3.5 3.5 0 0 1 0 7" fill="#5C5C5C"/></symbol></svg>