<svg xmlns="http://www.w3.org/2000/svg"><symbol id="icon_add" viewBox="0 0 576 576"><path d="M512 256H320V64c0-17.664-14.336-32-32-32s-32 14.336-32 32v192H64c-17.664 0-32 14.336-32 32s14.336 32 32 32h192v192c0 17.664 14.336 32 32 32s32-14.336 32-32V320h192c17.664 0 32-14.336 32-32s-14.336-32-32-32" fill="#5C5C5C" fill-rule="evenodd"/></symbol><symbol id="icon_arrow_down" viewBox="0 0 576 576"><path d="M314.745 531.031l176.88-182.4c13.833-14.263 13.833-37.319 0-51.582-13.796-14.264-37.286-14.264-51.118 0l-117.59 120.128V67.48c0-20.173-13.656-36.48-33.183-36.48-19.528 0-35.376 16.307-35.376 36.48V418.6L134.574 299.347c-13.833-14.264-35.66-14.264-49.492 0C78.184 306.46 75 315.799 75 325.102c0 9.339 3.608 18.678 10.507 25.791L262.459 533.33c13.832 14.227 36.26 14.227 50.092 0l2.194-2.299z" fill="#5C5C5C" fill-rule="evenodd"/></symbol><symbol id="icon_arrow_left" viewBox="0 0 576 576"><path d="M515.556 259.278H129.744L281.35 109.46c11.15-10.99 11.264-28.893.227-40.025-11.064-11.16-29.04-11.246-40.248-.255L40.46 267.464c-11.178 10.991-11.292 28.922-.256 40.054l199.107 200.04A28.494 28.494 0 0 0 259.562 516c7.225 0 14.45-2.748 19.996-8.186 11.178-10.991 11.292-28.922.256-40.054L128.55 315.93h387.006c15.73 0 28.444-12.69 28.444-28.326 0-15.636-12.714-28.326-28.444-28.326" fill="#5C5C5C" fill-rule="evenodd"/></symbol><symbol id="icon_arrow_right" viewBox="0 0 576 576"><path d="M60.444 259.278h385.812L294.65 109.46c-11.15-10.99-11.264-28.893-.227-40.025 11.064-11.16 29.04-11.246 40.248-.255l200.87 198.284c11.178 10.991 11.292 28.922.256 40.054L336.69 507.558A28.494 28.494 0 0 1 316.438 516a28.506 28.506 0 0 1-19.996-8.186c-11.178-10.991-11.292-28.922-.256-40.054L447.45 315.93H60.444C44.714 315.93 32 303.24 32 287.605c0-15.636 12.714-28.326 28.444-28.326" fill="#5C5C5C" fill-rule="evenodd"/></symbol><symbol id="icon_arrow_up" viewBox="0 0 576 576"><path d="M312.671 43.629l2.25 2.29h.036L496.36 227.606c14.188 14.208 14.188 37.174 0 51.382-14.152 14.208-38.247 14.208-52.436 0l-120.62-119.66v348.333c0 20.095-14.007 36.338-34.037 36.338-20.031 0-36.288-16.243-36.288-36.338v-349.75l-122.87 118.787c-14.188 14.208-36.578 14.208-50.766 0C72.266 269.613 69 260.311 69 251.045c0-9.303 3.701-18.605 10.777-25.691l181.51-181.725c14.19-14.172 37.196-14.172 51.384 0" fill="#5C5C5C" fill-rule="evenodd"/></symbol><symbol id="icon_attach" viewBox="0 0 576 576"><path d="M283.89 32C199.594 32 131 102.11 131 188.322v243.533C131 495.296 179.527 545 243.24 545c62.943 0 116.124-51.813 116.124-113.145v-216.97c0-37.991-33.085-68.885-74.59-68.885-38.85 0-68.138 29.612-68.138 68.885V345.5c0 15.76 12.76 28.5 28.546 28.5 15.785 0 28.545-12.74 28.545-28.5V214.885c0-7.895 3.711-11.885 11.875-11.885 7.85 0 16.67 5.073 16.67 11.885v216.97c0 30.438-27.032 56.145-60.773 56.145-30.429 0-53.408-24.14-53.408-56.145V188.322c0-55.689 42.104-99.322 98.368-99.322 55.007 0 101.45 45.486 101.45 99.322V431c0 15.76 12.76 28.5 28.546 28.5C432.24 459.5 445 446.76 445 431V188.322C445 103.592 372.409 32 283.89 32" fill="#5C5C5C" fill-rule="evenodd"/></symbol><symbol id="icon_calendar" viewBox="0 0 576 576"><path d="M472.889 88.889h-14.222V60.16c0-15.56-12.601-28.16-28.16-28.16h-.57c-15.558 0-28.16 12.6-28.16 28.16v28.729H174.223V60.16c0-15.56-12.6-28.16-28.16-28.16h-.569c-15.559 0-28.16 12.6-28.16 28.16v28.729h-14.222C63.915 88.889 32 120.804 32 160v312.889C32 512.085 63.915 544 103.111 544H472.89C512.085 544 544 512.085 544 472.889V160c0-39.196-31.915-71.111-71.111-71.111zm14.222 384c0 7.85-6.371 14.222-14.222 14.222H103.11c-7.85 0-14.222-6.371-14.222-14.222V273.778c0-7.85 6.371-14.222 14.222-14.222H472.89c7.85 0 14.222 6.371 14.222 14.222v199.11z" fill="#5C5C5C" fill-rule="evenodd"/></symbol><symbol id="icon_camera" viewBox="0 0 576 576"><path d="M408.576 117.75l-24.064-30.588C374.215 70.052 355.698 61 335.702 61h-95.005c-19.997 0-38.542 9.052-48.81 26.162l-24.093 30.588H88.889C57.458 117.75 32 143.146 32 174.5v283.637c0 31.325 25.458 56.75 56.889 56.75H486.94c31.403 0 56.89-25.424 56.89-56.75V174.5c0-31.354-25.487-56.75-56.89-56.75h-78.364zm-263.14 198.568c0-78.343 63.773-141.818 142.479-141.818 78.677 0 142.478 63.475 142.478 141.818 0 78.287-63.801 141.819-142.478 141.819-78.706 0-142.479-63.532-142.479-141.819zm142.735-85.068c-47.161 0-85.504 38.136-85.504 85.097 0 46.904 38.343 85.068 85.504 85.068 47.132 0 85.504-38.164 85.504-85.068 0-46.961-38.372-85.097-85.504-85.097z" fill="#5C5C5C" fill-rule="evenodd"/></symbol><symbol id="icon_cart" viewBox="0 0 576 576"><path d="M473.941 345.5H228.246l19.229-57H445.81c13.923 0 25.82-10.032 28.13-23.74l56.66-142.5C533.539 104.846 520.13 89 502.47 89H149.219l-20.626-41.24A28.564 28.564 0 0 0 103.059 32h-28.53C58.753 32 46 44.74 46 60.5S58.753 89 74.53 89h10.898l100.937 201.695-24.764 74.299c-2.938 8.664-1.455 18.24 3.909 25.678a28.52 28.52 0 0 0 23.137 11.828h285.294c15.777 0 28.53-12.74 28.53-28.5s-12.753-28.5-28.53-28.5M274.235 488c0-31.493-25.534-57-57.059-57s-57.058 25.507-57.058 57 25.533 57 57.058 57 57.06-25.507 57.06-57m228.235 0c0-31.493-25.534-57-57.06-57-31.524 0-57.058 25.507-57.058 57s25.534 57 57.059 57 57.059-25.507 57.059-57" fill="#5C5C5C" fill-rule="evenodd"/></symbol><symbol id="icon_close" viewBox="0 0 576 576"><path d="M339.721 288.01L533.294 94.436c14.3-14.3 14.3-37.413 0-51.712-14.3-14.3-37.413-14.3-51.712 0L288.009 236.297 94.437 42.725c-14.3-14.3-37.413-14.3-51.712 0-14.3 14.299-14.3 37.412 0 51.712l193.572 193.572L42.725 481.582c-14.3 14.3-14.3 37.412 0 51.712a36.471 36.471 0 0 0 25.856 10.715 36.471 36.471 0 0 0 25.856-10.715L288.009 339.72l193.573 193.573a36.471 36.471 0 0 0 25.856 10.715 36.471 36.471 0 0 0 25.856-10.715c14.3-14.3 14.3-37.413 0-51.712L339.72 288.009" fill="#5C5C5C" fill-rule="evenodd"/></symbol><symbol id="icon_collapse" viewBox="0 0 576 576"><path d="M544.786 395.367c0 10.944-4.186 21.887-12.515 30.222-16.701 16.715-43.696 16.715-60.397 0L288.505 242.077 105.137 425.589c-16.701 16.715-43.696 16.715-60.397 0-16.7-16.714-16.7-43.73 0-60.444l213.567-213.734c16.7-16.715 43.696-16.715 60.397 0L532.27 365.145c8.329 8.336 12.515 19.28 12.515 30.222" fill="#5C5C5C" fill-rule="evenodd"/></symbol><symbol id="icon_copy" viewBox="0 0 576 576"><path d="M328.198 309.248l-61.434-61.468c-10.69-10.667-25.131-16.669-40.227-16.669h-66.466c-39.203 0-71.071 31.886-71.071 71.111V472.89C89 512.114 120.868 544 160.071 544h113.715c39.203 0 71.071-31.886 71.071-71.111V349.497c0-15.104-5.998-29.554-16.659-40.249zM288 472.888c0 7.852-6.368 14.223-14.214 14.223H160.07c-7.846 0-14.214-6.371-14.214-14.222V302.222c0-7.85 6.368-14.222 14.214-14.222h42.643v56.889c0 15.644 12.793 28.444 28.429 28.444H288v99.556zM470.34 129.11l-80.395-80.44A56.86 56.86 0 0 0 349.747 32H160.07C120.811 32 89 63.83 89 103.111v71.111c0 15.73 12.708 28.445 28.429 28.445 15.72 0 28.428-12.715 28.428-28.445v-71.11c0-7.852 6.368-14.223 14.214-14.223H316.43v85.333c0 15.645 12.792 28.445 28.428 28.445h85.286v270.222c0 7.85-6.368 14.222-14.214 14.222h-14.812c-15.436 0-27.973 12.43-28.059 27.876v.853c-.085 15.53 12.509 28.16 28.002 28.16h14.869c39.26 0 71.071-31.83 71.071-71.111v-303.56a56.923 56.923 0 0 0-16.66-40.22z" fill="#5C5C5C" fill-rule="evenodd"/></symbol><symbol id="icon_cut" viewBox="0 0 576 576"><path d="M356.578 288l179.465-179.513c10.778-10.78 10.579-28.387-.426-39.395l-.399-.399c-11.005-11.008-28.607-11.207-39.385-.426L316.368 247.78l-63.897-63.915c4.265-11.975 7.024-24.661 7.024-38.087C259.495 83.029 208.479 32 145.747 32 83.016 32 32 83.03 32 145.778c0 62.748 51.016 113.778 113.747 113.778 28.352 0 54.002-10.81 73.965-28.018L276.159 288l-56.447 56.49c-19.963-17.237-45.613-28.046-73.965-28.046C83.016 316.444 32 367.474 32 430.222 32 492.971 83.016 544 145.747 544c62.732 0 113.748-51.03 113.748-113.778 0-13.426-2.759-26.112-7.024-38.087l63.897-63.915 179.465 179.513c10.778 10.78 28.38 10.582 39.385-.426l.399-.399c11.005-11.008 11.204-28.615.426-39.395L356.578 288zm-210.83-85.333c-31.338 0-56.874-25.515-56.874-56.89 0-31.345 25.536-56.888 56.873-56.888 31.338 0 56.874 25.543 56.874 56.889 0 31.374-25.536 56.889-56.874 56.889zm0 284.444c-31.338 0-56.874-25.543-56.874-56.889 0-31.346 25.536-56.889 56.873-56.889 31.338 0 56.874 25.543 56.874 56.89 0 31.345-25.536 56.888-56.874 56.888z" fill="#5C5C5C" fill-rule="evenodd"/></symbol><symbol id="icon_delete" viewBox="0 0 576 576"><path d="M137.577 497.348C142.137 524.85 165.935 545 193.779 545h188.442c27.844 0 51.642-20.15 56.202-47.652L459 203H117l20.577 294.348zM316.5 302.75c0-7.866 6.384-14.25 14.25-14.25h28.5c7.866 0 14.25 6.384 14.25 14.25v142.5c0 7.837-6.384 14.25-14.25 14.25h-28.5c-7.866 0-14.25-6.413-14.25-14.25v-142.5zm-114 0c0-7.866 6.384-14.25 14.25-14.25h28.5c7.866 0 14.25 6.384 14.25 14.25v142.5c0 7.837-6.384 14.25-14.25 14.25h-28.5c-7.866 0-14.25-6.413-14.25-14.25v-142.5zM487.5 89h-114c0-31.492-25.507-57-57-57h-57c-31.493 0-57 25.508-57 57h-114C72.768 89 60 101.74 60 117.5S72.768 146 88.5 146h399c15.732 0 28.5-12.74 28.5-28.5S503.232 89 487.5 89z" fill="#5C5C5C" fill-rule="evenodd"/></symbol><symbol id="icon_edit" viewBox="0 0 576 576"><path d="M515.556 487.111H316.444l-63.146 56.804h262.258c15.644 0 28.444-12.8 28.444-28.445 0-15.644-12.8-28.359-28.444-28.359zM432.782 32c-18.204 0-36.409 6.884-50.346 20.68L50.489 384.91C39.964 395.435 32 414.777 32 429.568v85.902c0 15.645 12.8 28.445 28.444 28.445h86.187c15.076 0 33.849-7.965 44.373-18.49l308.907-308.621 23.325-23.325c27.59-27.875 27.59-72.818 0-100.693l-40.107-40.107C469.19 38.884 450.987 32 432.782 32zM88.89 487.026v-56.32c.284-1.707 1.707-5.12 1.707-5.69l261.973-261.972 64 56.32L151.75 484.466c-1.422 1.138-4.551 2.275-5.12 2.56H88.89z" fill="#5C5C5C" fill-rule="evenodd"/></symbol><symbol id="icon_expand" viewBox="0 0 576 576"><path d="M44.73 151.411c16.7-16.715 43.696-16.715 60.398 0L288.5 334.937l183.372-183.526c16.702-16.715 43.697-16.715 60.398 0 16.702 16.716 16.702 43.734 0 60.449L318.7 425.61c-16.701 16.715-43.697 16.715-60.398 0L44.73 211.86c-8.33-8.336-12.516-19.28-12.516-30.224 0-10.944 4.186-21.888 12.516-30.225z" fill="#5C5C5C" fill-rule="evenodd"/></symbol><symbol id="icon_folder" viewBox="0 0 576 576"><path d="M32 248.113v224.946C32 504.49 57.508 530 89 530h399c31.493 0 57-25.51 57-56.941V245.294H32v2.819zM488 102.94H295.112L271.001 72.25C260.684 55.082 242.131 46 222.095 46H89c-31.493 0-57 25.51-57 56.941v85.412h513v-28.47c0-31.432-25.507-56.942-57-56.942z" fill="#5C5C5C" fill-rule="evenodd"/></symbol><symbol id="icon_home" viewBox="0 0 576 576"><path d="M515.526 273.772a28.26 28.26 0 0 1-17.039-5.694L288 110.066 77.509 268.078c-12.572 9.452-30.406 6.918-39.822-5.694-9.415-12.584-6.883-30.435 5.69-39.86L270.931 51.702c10.098-7.601 24.035-7.601 34.133 0l227.556 170.824c12.572 9.424 15.104 27.275 5.689 39.859-5.604 7.459-14.137 11.388-22.784 11.388zM287.999 188.36l199.11 142.353v142.353c0 31.46-25.457 56.941-56.888 56.941h-85.334V387.654H231.11v142.353h-84.964c-31.63 0-57.259-25.652-57.259-57.311V330.713L288 188.36z" fill="#5C5C5C" fill-rule="evenodd"/></symbol><symbol id="icon_information" viewBox="0 0 576 576"><g transform="translate(32 32)" fill="none" fill-rule="evenodd"><path d="M255.067 455.111c109.565 0 198.385-89.145 198.385-199.111S364.632 56.889 255.067 56.889 56.68 146.034 56.68 256s88.82 199.111 198.386 199.111zM256 512C114.615 512 0 397.385 0 256S114.615 0 256 0s256 114.615 256 256-114.615 256-256 256z" fill="#5E5E5E" fill-rule="nonzero"/><path d="M256 199.111c15.71 0 28.444 12.735 28.444 28.445v142.222c0 15.71-12.735 28.444-28.444 28.444-15.71 0-28.444-12.735-28.444-28.444V227.556c0-15.71 12.735-28.445 28.444-28.445z" fill="#5C5C5C"/><circle fill="#5C5C5C" cx="256" cy="142.222" r="28.444"/></g></symbol><symbol id="icon_insert_image" viewBox="0 0 576 576"><path d="M473.543 32H102.457C62.947 32 32 62.009 32 100.295v375.41C32 513.99 62.948 544 102.457 544h371.086c39.51 0 70.457-30.009 70.457-68.295v-375.41C544 62.01 513.052 32 473.543 32M102.457 88.889h371.086c1.45 0 14.109.341 14.109 11.406v330.496l-88.89-81.607-82.318 54.357-112.583-102.286-115.484 72.078V103.111c0-7.822 6.286-14.222 14.08-14.222m327.765 113.778c0-31.431-25.458-56.89-56.889-56.89-31.43 0-56.889 25.459-56.889 56.89 0 31.43 25.458 56.889 56.89 56.889 31.43 0 56.888-25.458 56.888-56.89" fill="#5C5C5C" fill-rule="evenodd"/></symbol><symbol id="icon_launch" viewBox="0 0 576 576"><path d="M189.001 386.999c14.3 14.3 37.413 14.3 51.712 0l230.144-230.144V288c0 20.187 16.348 36.571 36.572 36.571C527.653 324.571 544 308.187 544 288V68.571C544 48.384 527.653 32 507.429 32H288c-20.224 0-36.571 16.384-36.571 36.571 0 20.188 16.347 36.572 36.571 36.572h131.145L189.001 335.287c-14.3 14.3-14.3 37.412 0 51.712m318.793 10.715c-20.004 0-36.242 16.348-36.242 36.572v21.906c0 14.226-16.274 14.665-18.14 14.665H122.588c-1.865 0-18.102-.439-18.102-14.665V123.429c0-10.058 8.082-18.286 18.102-18.286h19.493c20.005 0 36.206-16.348 36.206-36.572C178.286 48.347 162.085 32 142.08 32h-19.493C72.631 32 32 72.997 32 123.429v332.763C32 505.417 71.79 544 122.587 544h330.826C504.21 544 544 505.417 544 456.192v-21.906c0-20.224-16.201-36.572-36.206-36.572" fill="#5C5C5C" fill-rule="evenodd"/></symbol><symbol id="icon_link" viewBox="0 0 576 576"><path d="M231.5 431h-71.25C89.541 431 32 373.458 32 302.75v-28.5C32 203.541 89.541 146 160.25 146h71.25c15.76 0 28.5 12.74 28.5 28.5S247.26 203 231.5 203h-71.25C120.948 203 89 234.948 89 274.25v28.5c0 39.302 31.948 71.25 71.25 71.25h71.25c15.76 0 28.5 12.74 28.5 28.5S247.26 431 231.5 431m185.25 0H345.5c-15.76 0-28.5-12.74-28.5-28.5s12.74-28.5 28.5-28.5h71.25c39.301 0 71.25-31.948 71.25-71.25v-28.5c0-39.302-31.949-71.25-71.25-71.25H345.5c-15.76 0-28.5-12.74-28.5-28.5s12.74-28.5 28.5-28.5h71.25C487.459 146 545 203.541 545 274.25v28.5C545 373.458 487.459 431 416.75 431M374 317H203c-15.675 0-28.5-12.825-28.5-28.5S187.325 260 203 260h171c15.675 0 28.5 12.825 28.5 28.5S389.675 317 374 317" fill="#5C5C5C" fill-rule="evenodd"/></symbol><symbol id="icon_mail" viewBox="0 0 576 576"><path d="M296.42 326.805L544 145.345v-5.088C544 111.942 521.045 89 492.715 89H88.377C57.259 89 32 114.216 32 145.345l247.609 181.46a14.218 14.218 0 0 0 16.81 0zm7.879 64.163A28.319 28.319 0 0 1 288 396.114a28.319 28.319 0 0 1-16.299-5.146L32 214.74v215.403C32 461.556 57.486 487 88.889 487H487.11C518.542 487 544 461.556 544 430.143V214.74L304.299 390.968z" fill="#5C5C5C" fill-rule="evenodd"/></symbol><symbol id="icon_map_pin" viewBox="0 0 576 576"><path d="M288 32C178.095 32 89 121.145 89 231.111c0 114.574 129.151 257.735 179.384 305.152 10.974 10.354 27.917 10.325 38.862-.085C357.196 488.732 487 345.628 487 231.11 487 121.145 397.905 32 288 32m0 284.444c-47.106 0-85.286-38.2-85.286-85.333 0-47.132 38.18-85.333 85.286-85.333s85.286 38.2 85.286 85.333c0 47.133-38.18 85.333-85.286 85.333" fill="#5C5C5C" fill-rule="evenodd"/></symbol><symbol id="icon_menu" viewBox="0 0 576 576"><path d="M515.84 118c15.56 0 28.16 12.589 28.16 28.133v.568c0 15.544-12.6 28.132-28.16 28.132H60.16c-15.53 0-28.16-12.588-28.16-28.132v-.568C32 130.588 44.63 118 60.16 118h455.68zm0 284.167c15.56 0 28.16 12.588 28.16 28.132v.569C544 446.41 531.4 459 515.84 459H60.16C44.63 459 32 446.411 32 430.868v-.569c0-15.544 12.63-28.132 28.16-28.132h455.68zm0-142.084c15.56 0 28.16 12.589 28.16 28.133v.568c0 15.544-12.6 28.133-28.16 28.133H60.16c-15.53 0-28.16-12.589-28.16-28.133v-.568c0-15.544 12.63-28.133 28.16-28.133h455.68z" fill="#5C5C5C" fill-rule="evenodd"/></symbol><symbol id="icon_minus" viewBox="0 0 576 576"><path d="M83.3 339.8h410.4c28.369 0 51.3-22.931 51.3-51.3 0-28.369-22.931-51.3-51.3-51.3H83.3c-28.369 0-51.3 22.931-51.3 51.3 0 28.369 22.931 51.3 51.3 51.3" fill="#5C5C5C" fill-rule="evenodd"/></symbol><symbol id="icon_notification" viewBox="0 0 576 576"><path d="M529.664 434.546l.484-.17s-42.752-33.764-42.752-117.932c0-3.726-.114-6.599-.285-9.13V288c0-99.812-74.553-182.87-170.667-196.807V60.444C316.444 44.8 303.644 32 288 32c-15.644 0-28.444 12.8-28.444 28.444v30.749C163.442 105.13 88.889 188.188 88.889 288v14.62c-.512 2.959-.825 7.34-.825 13.824 0 84.168-42.724 117.931-42.724 117.931l.825.285C37.86 439.666 32 448.34 32 458.667c0 15.644 12.8 28.444 28.444 28.444H207.9C219.648 520.192 250.908 544 288 544c37.092 0 68.352-23.808 80.1-56.889h147.456c15.644 0 28.444-12.8 28.444-28.444 0-10.411-5.945-19.172-14.336-24.121" fill="#5C5C5C" fill-rule="evenodd"/></symbol><symbol id="icon_paste" viewBox="0 0 576 576"><path d="M499.336 309.248l-61.454-61.468c-10.692-10.667-25.139-16.669-40.239-16.669h-66.487c-39.215 0-71.094 31.886-71.094 71.111V472.89c0 39.225 31.879 71.111 71.094 71.111h113.75C484.122 544 516 512.114 516 472.889V349.497c0-15.104-6-29.554-16.664-40.249zm-40.211 163.64c0 7.852-6.37 14.223-14.219 14.223h-113.75c-7.849 0-14.219-6.371-14.219-14.222V302.222c0-7.85 6.37-14.222 14.22-14.222h42.656v56.889c0 15.644 12.796 28.444 28.437 28.444h56.875v99.556zM398.695 89.97v-1.081h-16.124l-24.058-30.663C348.22 41.074 329.706 32 309.714 32h-94.98c-19.992 0-38.534 9.074-48.8 26.226l-24.086 30.663H121.43v1.08C87.276 95.148 61 124.389 61 160v256c0 39.282 31.822 71.111 71.094 71.111h71.094c15.697 0 28.437-12.743 28.437-28.444 0-15.702-12.74-28.445-28.437-28.445h-71.094c-7.849 0-14.219-6.371-14.219-14.222V160c0-7.85 6.37-14.222 14.219-14.222H388.03c7.849 0 14.219 6.371 14.219 14.222v14.222c0 15.702 12.74 28.445 28.438 28.445 15.697 0 28.437-12.743 28.437-28.445V160c0-35.612-26.276-64.853-60.43-70.03z" fill="#5C5C5C" fill-rule="evenodd"/></symbol><symbol id="icon_print" viewBox="0 0 576 576"><path d="M431 60.5c0-15.732-12.74-28.5-28.5-28.5h-228C158.74 32 146 44.768 146 60.5V146h285V60.5zM488 203H89c-31.436 0-57 25.565-57 57v142.5c0 31.435 25.564 57 57 57h28.5v-99.75c0-23.598 19.152-42.75 42.75-42.75h256.5c23.598 0 42.75 19.152 42.75 42.75v99.75H488c31.407 0 57-25.565 57-57V260c0-31.435-25.593-57-57-57zM374 374H203c-15.76 0-28.5 12.74-28.5 28.5v114c0 15.732 12.74 28.5 28.5 28.5h171c15.76 0 28.5-12.768 28.5-28.5v-114c0-15.76-12.74-28.5-28.5-28.5z" fill="#5C5C5C" fill-rule="evenodd"/></symbol><symbol id="icon_save" viewBox="0 0 576 576"><path d="M401.778 316.16c0-15.56-12.601-28.16-28.16-28.16H202.382c-15.559 0-28.16 12.6-28.16 28.16v.569c0 15.559 12.601 28.16 28.16 28.16h171.236c15.559 0 28.16-12.601 28.16-28.16v-.569zm0 85.333c0-15.559-12.601-28.16-28.16-28.16H202.382c-15.559 0-28.16 12.601-28.16 28.16v.57c0 15.558 12.601 28.16 28.16 28.16h171.236c15.559 0 28.16-12.602 28.16-28.16v-.57zm-213.334-284.16c-7.85 0-14.222-6.371-14.222-14.222V46.222c0-7.85 6.372-14.222 14.222-14.222h142.223c7.85 0 14.222 6.372 14.222 14.222v56.89c0 7.85-6.372 14.221-14.222 14.221H188.444zm339.684 37.604c9.956 9.927 15.872 24.206 15.872 39.395V472.89C544 512.114 512.085 544 472.889 544H103.11C63.915 544 32 512.114 32 472.889V103.11C32 63.886 63.915 32 103.111 32h18.46c-.938 4.58-4.238 9.358-4.238 14.222v56.89c0 39.224 34.703 71.11 73.927 71.11h139.407c39.196 0 71.11-31.886 71.11-71.11v-56.89c0-4.522-.54-8.931-1.336-13.198 11.207 2.048 21.532 7.396 29.781 15.644l97.906 106.269zm-41.017 317.952V245.333c0-7.85-6.371-14.222-14.222-14.222H103.11c-7.85 0-14.222 6.372-14.222 14.222V472.89c0 7.822 6.4 14.222 14.222 14.222H472.89c7.822 0 14.222-6.4 14.222-14.222z" fill="#5C5C5C" fill-rule="evenodd"/></symbol><symbol id="icon_search" viewBox="0 0 576 576"><path d="M391.067 350.744c24.965-33.317 39.927-74.528 39.927-119.244 0-110.01-89.517-199.5-199.497-199.5C121.517 32 32 121.49 32 231.5S121.517 431 231.497 431c44.716 0 85.955-14.991 119.271-39.957l145.576 145.606a28.421 28.421 0 0 0 20.15 8.351 28.421 28.421 0 0 0 20.148-8.35c11.144-11.144 11.144-29.156 0-40.3L391.067 350.745zM89 231c0-78.299 63.701-142 142-142s142 63.701 142 142-63.701 142-142 142S89 309.299 89 231z" fill="#5C5C5C" fill-rule="evenodd"/></symbol><symbol id="icon_search_list" viewBox="0 0 576 576"><path d="M311.728 352.164c17.726-25.769 27.046-55.685 27.046-86.944 0-84.885-68.799-153.954-153.387-153.954S32 180.335 32 265.22c0 84.856 68.799 153.896 153.387 153.896 31.179 0 61.018-9.38 86.697-27.17L374.541 494.82c5.301 5.291 12.341 8.18 19.808 8.18 7.524 0 14.535-2.889 19.808-8.208 10.915-10.983 10.915-28.829 0-39.783l-102.43-102.845zm-126.341 10.725c-53.665 0-97.328-43.816-97.328-97.67 0-53.853 43.663-97.697 97.328-97.697 53.694 0 97.356 43.844 97.356 97.698 0 53.853-43.662 97.669-97.356 97.669zM516.5 131.2h-171c-15.675 0-28.5-12.87-28.5-28.6 0-15.73 12.825-28.6 28.5-28.6h171c15.675 0 28.5 12.87 28.5 28.6 0 15.73-12.825 28.6-28.5 28.6zm0 114.4h-114c-15.675 0-28.5-12.87-28.5-28.6 0-15.73 12.825-28.6 28.5-28.6h114c15.675 0 28.5 12.87 28.5 28.6 0 15.73-12.825 28.6-28.5 28.6zm0 114.4h-114c-15.675 0-28.5-12.87-28.5-28.6 0-15.73 12.825-28.6 28.5-28.6h114c15.675 0 28.5 12.87 28.5 28.6 0 15.73-12.825 28.6-28.5 28.6z" fill="#5C5C5C" fill-rule="evenodd"/></symbol><symbol id="icon_settings" viewBox="0 0 576 576"><path d="M518.4 245.049l-39.538-8.078c-3.783-.74-6.741-3.556-7.879-7.225-3.3-10.326-7.452-20.338-12.487-29.924-1.82-3.413-1.707-7.48.427-10.723l22.3-33.679c8.391-12.686 6.685-29.525-4.067-40.277l-16.27-16.299c-10.781-10.752-27.62-12.458-40.278-4.067l-33.707 22.3c-3.242 2.105-7.31 2.219-10.752.427-9.557-5.063-19.541-9.188-29.895-12.487-3.67-1.166-6.457-4.096-7.225-7.88L330.951 57.6C327.908 42.695 314.795 32 299.605 32h-23.21c-15.19 0-28.303 10.695-31.346 25.6l-8.078 39.538c-.768 3.783-3.556 6.713-7.225 7.879-10.354 3.3-20.338 7.424-29.895 12.487-3.442 1.792-7.51 1.678-10.752-.427l-33.707-22.3c-12.658-8.391-29.497-6.685-40.277 4.067l-16.27 16.3c-10.753 10.751-12.46 27.59-4.068 40.276l22.3 33.679c2.134 3.242 2.247 7.31.427 10.723-5.035 9.586-9.188 19.598-12.487 29.924-1.138 3.67-4.096 6.485-7.88 7.225L57.6 245.049C42.695 248.092 32 261.205 32 276.423v23.154c0 15.218 10.695 28.33 25.6 31.374l39.538 8.078c3.783.74 6.741 3.556 7.879 7.225 3.3 10.326 7.452 20.338 12.487 29.895 1.82 3.442 1.707 7.51-.427 10.752l-22.3 33.679c-8.391 12.686-6.685 29.525 4.067 40.277l16.27 16.299c10.753 10.752 27.62 12.458 40.278 4.067l33.707-22.3c3.242-2.134 7.31-2.219 10.752-.427 9.557 5.063 19.541 9.188 29.895 12.487 3.67 1.138 6.457 4.096 7.225 7.85l8.078 39.567c3.043 14.905 16.156 25.6 31.346 25.6h23.21c15.19 0 28.303-10.695 31.346-25.6l8.078-39.566c.768-3.755 3.556-6.713 7.225-7.85 10.354-3.3 20.338-7.425 29.895-12.488 3.442-1.792 7.51-1.707 10.752.427l33.707 22.3c12.658 8.391 29.525 6.685 40.277-4.067l16.27-16.3c10.753-10.751 12.46-27.59 4.068-40.276l-22.3-33.679c-2.134-3.242-2.247-7.31-.427-10.752 5.035-9.557 9.188-19.57 12.487-29.895 1.138-3.67 4.096-6.485 7.88-7.225l39.537-8.078c14.905-3.043 25.6-16.156 25.6-31.374v-23.154c0-15.218-10.695-28.33-25.6-31.374M288 373.333c-47.132 0-85.333-38.2-85.333-85.333 0-47.132 38.2-85.333 85.333-85.333 47.132 0 85.333 38.2 85.333 85.333 0 47.132-38.2 85.333-85.333 85.333" fill="#5C5C5C" fill-rule="evenodd"/></symbol><symbol id="icon_star" viewBox="0 0 576 576"><path d="M311.818 63.816l50.017 153.871h158.631c23.997 0 33.659 30.61 13.908 44.375l-127.252 88.407 49.276 149.055c7.496 22.771-18.325 41.78-37.591 27.73l-130.245-95.076L158.26 526c-19.323 13.908-45.002-5.3-37.449-27.987l49.22-147.573-127.453-88.407c-19.722-13.794-10.032-44.346 13.937-44.346h158.802L265.306 64.13c7.381-22.629 39.13-22.942 46.512-.313" fill="#5C5C5C" fill-rule="evenodd"/></symbol></svg>