<svg width="576" height="576" viewBox="0 0 576 576" xmlns="http://www.w3.org/2000/svg"><g transform="translate(32 32)" fill-rule="evenodd"><path d="M255.067 455.111c109.565 0 198.385-89.145 198.385-199.111S364.632 56.889 255.067 56.889 56.68 146.034 56.68 256s88.82 199.111 198.386 199.111zM256 512C114.615 512 0 397.385 0 256S114.615 0 256 0s256 114.615 256 256-114.615 256-256 256z" fill-rule="nonzero"/><path d="M256 199.111c15.71 0 28.444 12.735 28.444 28.445v142.222c0 15.71-12.735 28.444-28.444 28.444-15.71 0-28.444-12.735-28.444-28.444V227.556c0-15.71 12.735-28.445 28.444-28.445z"/><circle cx="256" cy="142.222" r="28.444"/></g></svg>