<svg width="576" height="576" viewBox="0 0 576 576" xmlns="http://www.w3.org/2000/svg"><path d="M311.728 352.164c17.726-25.769 27.046-55.685 27.046-86.944 0-84.885-68.799-153.954-153.387-153.954S32 180.335 32 265.22c0 84.856 68.799 153.896 153.387 153.896 31.179 0 61.018-9.38 86.697-27.17L374.541 494.82c5.301 5.291 12.341 8.18 19.808 8.18 7.524 0 14.535-2.889 19.808-8.208 10.915-10.983 10.915-28.829 0-39.783l-102.43-102.845zm-126.341 10.725c-53.665 0-97.328-43.816-97.328-97.67 0-53.853 43.663-97.697 97.328-97.697 53.694 0 97.356 43.844 97.356 97.698 0 53.853-43.662 97.669-97.356 97.669zM516.5 131.2h-171c-15.675 0-28.5-12.87-28.5-28.6 0-15.73 12.825-28.6 28.5-28.6h171c15.675 0 28.5 12.87 28.5 28.6 0 15.73-12.825 28.6-28.5 28.6zm0 114.4h-114c-15.675 0-28.5-12.87-28.5-28.6 0-15.73 12.825-28.6 28.5-28.6h114c15.675 0 28.5 12.87 28.5 28.6 0 15.73-12.825 28.6-28.5 28.6zm0 114.4h-114c-15.675 0-28.5-12.87-28.5-28.6 0-15.73 12.825-28.6 28.5-28.6h114c15.675 0 28.5 12.87 28.5 28.6 0 15.73-12.825 28.6-28.5 28.6z" fill-rule="evenodd"/></svg>