<svg width="576" height="576" viewBox="0 0 576 576" xmlns="http://www.w3.org/2000/svg"><path d="M339.721 288.01L533.294 94.436c14.3-14.3 14.3-37.413 0-51.712-14.3-14.3-37.413-14.3-51.712 0L288.009 236.297 94.437 42.725c-14.3-14.3-37.413-14.3-51.712 0-14.3 14.299-14.3 37.412 0 51.712l193.572 193.572L42.725 481.582c-14.3 14.3-14.3 37.412 0 51.712a36.471 36.471 0 0 0 25.856 10.715 36.471 36.471 0 0 0 25.856-10.715L288.009 339.72l193.573 193.573a36.471 36.471 0 0 0 25.856 10.715 36.471 36.471 0 0 0 25.856-10.715c14.3-14.3 14.3-37.413 0-51.712L339.72 288.009" fill-rule="evenodd"/></svg>