<svg width="576" height="576" viewBox="0 0 576 576" xmlns="http://www.w3.org/2000/svg"><path d="M391.067 350.744c24.965-33.317 39.927-74.528 39.927-119.244 0-110.01-89.517-199.5-199.497-199.5C121.517 32 32 121.49 32 231.5S121.517 431 231.497 431c44.716 0 85.955-14.991 119.271-39.957l145.576 145.606a28.421 28.421 0 0 0 20.15 8.351 28.421 28.421 0 0 0 20.148-8.35c11.144-11.144 11.144-29.156 0-40.3L391.067 350.745zM89 231c0-78.299 63.701-142 142-142s142 63.701 142 142-63.701 142-142 142S89 309.299 89 231z" fill-rule="evenodd"/></svg>